<svg width="11" height="9" viewBox="0 0 11 9" fill="none" xmlns="http://www.w3.org/2000/svg">
<path d="M5.61665 7.58561C6.45263 7.58561 7.13727 7.45418 7.67058 7.19132C8.21829 6.92847 8.49215 6.57173 8.49215 6.12112C8.49215 5.69304 8.21829 5.35509 7.67058 5.10725C7.13727 4.85942 6.45263 4.7355 5.61665 4.7355C4.78066 4.7355 4.08881 4.85942 3.5411 5.10725C3.00779 5.35509 2.74114 5.69304 2.74114 6.12112C2.74114 6.57173 3.00779 6.92847 3.5411 7.19132C4.08881 7.45418 4.78066 7.58561 5.61665 7.58561ZM5.61665 8.59948C4.04557 8.59948 2.76276 8.37793 1.76823 7.93483C0.773695 7.48422 0.276428 6.87965 0.276428 6.12112C0.276428 5.63296 0.521458 5.2199 1.01152 4.88195C1.51599 4.53648 2.19343 4.30742 3.04383 4.19477V4.1835C1.61689 3.8906 0.903417 3.34612 0.903417 2.55004C0.903417 1.87412 1.3142 1.34841 2.13578 0.972904C2.95735 0.589886 4.11764 0.398376 5.61665 0.398376C7.11565 0.398376 8.27594 0.589886 9.09752 0.972904C9.91909 1.34841 10.3299 1.87412 10.3299 2.55004C10.3299 3.34612 9.6164 3.8906 8.18946 4.1835V4.19477C9.03986 4.30742 9.71009 4.53648 10.2002 4.88195C10.7046 5.2199 10.9569 5.63296 10.9569 6.12112C10.9569 6.87965 10.4596 7.48422 9.46506 7.93483C8.47053 8.37793 7.18772 8.59948 5.61665 8.59948ZM5.61665 1.41225C4.9248 1.41225 4.35546 1.52115 3.90864 1.73894C3.46182 1.94923 3.23841 2.24212 3.23841 2.61763C3.23841 2.97812 3.45461 3.26351 3.88702 3.47379C4.33384 3.67656 4.91038 3.77795 5.61665 3.77795C6.32291 3.77795 6.89224 3.67656 7.32465 3.47379C7.77147 3.26351 7.99488 2.97812 7.99488 2.61763C7.99488 2.24212 7.77147 1.94923 7.32465 1.73894C6.87783 1.52115 6.3085 1.41225 5.61665 1.41225Z" fill="#A1A4B2"/>
</svg>
