<svg width="13" height="15" viewBox="0 0 13 15" fill="none" xmlns="http://www.w3.org/2000/svg">
<path d="M6.49256 2.71335C5.55533 2.71335 4.82461 2.9779 4.3004 3.50701C3.82384 3.9869 3.58557 4.60215 3.58557 5.35275C3.58557 6.11565 3.82384 6.7432 4.3004 7.2354C4.82461 7.78912 5.55533 8.06598 6.49256 8.06598C7.46155 8.06598 8.2161 7.78912 8.75619 7.2354C9.26452 6.7432 9.51868 6.11565 9.51868 5.35275C9.51868 4.61445 9.25658 3.99306 8.73237 3.48855C8.20815 2.97175 7.46155 2.71335 6.49256 2.71335ZM1.17896 10.8715H3.89533C3.95887 11.4006 4.20509 11.8313 4.63399 12.1635C5.06289 12.4834 5.62681 12.6434 6.32576 12.6434C7.61246 12.6434 8.5338 12.1143 9.08978 11.0561C9.42337 10.4408 9.65371 9.49334 9.78079 8.21363L9.73313 8.17672C8.98653 9.21033 7.7872 9.72714 6.13514 9.72714C4.56251 9.72714 3.29169 9.33338 2.3227 8.54587C1.3537 7.74605 0.869202 6.68783 0.869202 5.3712C0.869202 4.07919 1.37753 3.02097 2.39418 2.19654C3.42672 1.37211 4.83255 0.9599 6.61169 0.9599C8.80385 0.9599 10.3765 1.61206 11.3296 2.91638C12.108 3.99921 12.4972 5.59884 12.4972 7.71529C12.4972 9.5118 12.0365 11.013 11.1151 12.2189C10.0032 13.6709 8.36701 14.3968 6.20662 14.3968C4.85638 14.3968 3.69676 14.0708 2.72777 13.4186C1.75877 12.7541 1.2425 11.9051 1.17896 10.8715Z" fill="#A4A7B5"/>
</svg>
