<svg width="24" height="15" viewBox="0 0 24 15" fill="none" xmlns="http://www.w3.org/2000/svg">
<path d="M5.18772 7.87367V6.32795C6.14002 6.36432 6.91651 6.23097 7.51718 5.92788C8.23507 5.58843 8.59401 5.05501 8.59401 4.32761C8.59401 3.79419 8.36692 3.36381 7.91275 3.03649C7.47323 2.69703 6.90186 2.52731 6.19862 2.52731C5.37818 2.52731 4.74088 2.78796 4.28671 3.30926C3.83253 3.81844 3.6201 4.4246 3.6494 5.12775H1.14413C1.21739 3.85481 1.69353 2.82433 2.57258 2.03632C3.51022 1.21193 4.73355 0.799744 6.24257 0.799744C7.54649 0.799744 8.65261 1.08464 9.56095 1.65443C10.5865 2.28484 11.0993 3.13347 11.0993 4.20032C11.0993 5.59449 10.3741 6.50374 8.92365 6.92805V6.96442C9.78804 7.1099 10.4693 7.4736 10.9674 8.05552C11.4655 8.62531 11.7146 9.3224 11.7146 10.1468C11.7146 11.3106 11.1725 12.2562 10.0884 12.9836C9.06283 13.6868 7.78822 14.0383 6.26455 14.0383C4.53577 14.0383 3.19523 13.6322 2.24293 12.82C1.34924 12.0441 0.887746 10.9712 0.858444 9.60123H3.36371C3.33441 10.4014 3.56882 11.0439 4.06695 11.5288C4.57972 12.0501 5.31225 12.3108 6.26455 12.3108C7.12894 12.3108 7.83217 12.1107 8.37425 11.7107C8.93098 11.2985 9.20934 10.7408 9.20934 10.0377C9.20934 8.49802 7.8688 7.77668 5.18772 7.87367Z" fill="#A1A4B2"/>
<path d="M23.7501 11.9289V13.7838H13.2455C13.2602 11.8562 14.3883 10.2498 16.6299 8.96476C17.3331 8.57682 18.029 8.18887 18.7176 7.80093C19.5087 7.34024 20.1021 6.90381 20.4976 6.49162C20.9958 5.95819 21.2521 5.3884 21.2668 4.78224C21.2814 4.20032 21.1203 3.70933 20.7833 3.30926C20.3438 2.78796 19.6406 2.52731 18.6736 2.52731C16.9888 2.52731 16.1098 3.58809 16.0365 5.70966H13.5312C13.5312 4.25487 13.9854 3.08498 14.8937 2.19998C15.846 1.26649 17.1573 0.799744 18.8275 0.799744C20.5269 0.799744 21.8235 1.2483 22.7172 2.14543C23.4205 2.8607 23.7721 3.71539 23.7721 4.7095C23.7721 6.24915 22.6293 7.6797 20.3438 9.00113C19.4941 9.47394 18.6443 9.94675 17.7946 10.4196C16.9595 10.953 16.4467 11.4561 16.2563 11.9289H23.7501Z" fill="#A1A4B2"/>
</svg>
