<svg width="26" height="9" viewBox="0 0 26 9" fill="none" xmlns="http://www.w3.org/2000/svg">
<path d="M5.22438 5.20013V4.26192C6.26438 4.284 7.11238 4.20305 7.76838 4.01909C8.55238 3.81305 8.94438 3.48928 8.94438 3.04776C8.94438 2.72399 8.69638 2.46276 8.20038 2.26408C7.72038 2.05804 7.09638 1.95502 6.32838 1.95502C5.43238 1.95502 4.73638 2.11323 4.24038 2.42965C3.74438 2.73871 3.51238 3.10663 3.54438 3.53343H0.808384C0.888384 2.76078 1.40838 2.13531 2.36838 1.657C3.39238 1.15662 4.72838 0.906433 6.37638 0.906433C7.80038 0.906433 9.00838 1.07936 10.0004 1.42521C11.1204 1.80785 11.6804 2.32295 11.6804 2.9705C11.6804 3.81673 10.8884 4.36862 9.30438 4.62617V4.64824C10.2484 4.73655 10.9924 4.9573 11.5364 5.31051C12.0804 5.65636 12.3524 6.07948 12.3524 6.57986C12.3524 7.28627 11.7604 7.86024 10.5764 8.30175C9.45638 8.72854 8.06438 8.94194 6.40038 8.94194C4.51238 8.94194 3.04838 8.69543 2.00838 8.20241C1.03238 7.73146 0.528384 7.08024 0.496384 6.24872H3.23238C3.20038 6.73438 3.45638 7.12439 4.00038 7.41873C4.56038 7.73514 5.36038 7.89335 6.40038 7.89335C7.34438 7.89335 8.11238 7.77194 8.70438 7.52911C9.31238 7.27892 9.61638 6.94042 9.61638 6.51363C9.61638 5.5791 8.15238 5.14126 5.22438 5.20013Z" fill="#A1A4B2"/>
<path d="M18.5603 5.20013V4.26192C19.6003 4.284 20.4483 4.20305 21.1043 4.01909C21.8883 3.81305 22.2803 3.48928 22.2803 3.04776C22.2803 2.72399 22.0323 2.46276 21.5363 2.26408C21.0563 2.05804 20.4323 1.95502 19.6643 1.95502C18.7683 1.95502 18.0723 2.11323 17.5763 2.42965C17.0803 2.73871 16.8483 3.10663 16.8803 3.53343H14.1443C14.2243 2.76078 14.7443 2.13531 15.7043 1.657C16.7283 1.15662 18.0643 0.906433 19.7123 0.906433C21.1363 0.906433 22.3443 1.07936 23.3363 1.42521C24.4563 1.80785 25.0163 2.32295 25.0163 2.9705C25.0163 3.81673 24.2243 4.36862 22.6403 4.62617V4.64824C23.5843 4.73655 24.3283 4.9573 24.8723 5.31051C25.4163 5.65636 25.6883 6.07948 25.6883 6.57986C25.6883 7.28627 25.0963 7.86024 23.9123 8.30175C22.7923 8.72854 21.4003 8.94194 19.7363 8.94194C17.8483 8.94194 16.3843 8.69543 15.3443 8.20241C14.3683 7.73146 13.8643 7.08024 13.8323 6.24872H16.5683C16.5363 6.73438 16.7923 7.12439 17.3363 7.41873C17.8963 7.73514 18.6963 7.89335 19.7363 7.89335C20.6803 7.89335 21.4483 7.77194 22.0403 7.52911C22.6483 7.27892 22.9523 6.94042 22.9523 6.51363C22.9523 5.5791 21.4883 5.14126 18.5603 5.20013Z" fill="#A1A4B2"/>
</svg>
