<svg width="25" height="14" viewBox="0 0 25 14" fill="none" xmlns="http://www.w3.org/2000/svg">
<path d="M11.1083 11.1323V12.8773H0.171677C0.18693 11.0638 1.36144 9.55256 3.6952 8.34356C4.42736 7.97857 5.1519 7.61359 5.86881 7.24861C6.69249 6.81519 7.31025 6.40459 7.72209 6.01679C8.2407 5.51494 8.50764 4.97887 8.52289 4.40858C8.53814 3.86111 8.37036 3.39918 8.01953 3.02279C7.56193 2.53234 6.82977 2.28712 5.82305 2.28712C4.06891 2.28712 3.15371 3.28512 3.07744 5.28112H0.469117C0.469117 3.91244 0.941971 2.81178 1.88768 1.97917C2.87915 1.10092 4.24432 0.661804 5.9832 0.661804C7.75259 0.661804 9.10252 1.08382 10.033 1.92784C10.7651 2.60078 11.1312 3.40488 11.1312 4.34015C11.1312 5.78868 9.94145 7.13455 7.56193 8.37778C6.67723 8.8226 5.79254 9.26742 4.90784 9.71224C4.0384 10.2141 3.50453 10.6874 3.30624 11.1323H11.1083Z" fill="#A4A7B5"/>
<path d="M18.3536 11.5771C19.2383 11.5771 19.9628 11.3775 20.5272 10.9783C21.1068 10.5791 21.3967 10.0373 21.3967 9.35296C21.3967 8.70284 21.1068 8.18958 20.5272 7.81319C19.9628 7.4368 19.2383 7.24861 18.3536 7.24861C17.4689 7.24861 16.7368 7.4368 16.1571 7.81319C15.5928 8.18958 15.3106 8.70284 15.3106 9.35296C15.3106 10.0373 15.5928 10.5791 16.1571 10.9783C16.7368 11.3775 17.4689 11.5771 18.3536 11.5771ZM18.3536 13.1169C16.691 13.1169 15.3335 12.7804 14.281 12.1074C13.2285 11.4231 12.7022 10.5049 12.7022 9.35296C12.7022 8.61159 12.9616 7.98428 13.4802 7.47102C14.014 6.94636 14.7309 6.59848 15.6309 6.4274V6.41029C14.1208 5.96546 13.3658 5.13855 13.3658 3.92954C13.3658 2.90303 13.8005 2.10463 14.6699 1.53434C15.5394 0.95265 16.7673 0.661804 18.3536 0.661804C19.94 0.661804 21.1679 0.95265 22.0373 1.53434C22.9067 2.10463 23.3415 2.90303 23.3415 3.92954C23.3415 5.13855 22.5864 5.96546 21.0763 6.41029V6.4274C21.9763 6.59848 22.6856 6.94636 23.2042 7.47102C23.738 7.98428 24.005 8.61159 24.005 9.35296C24.005 10.5049 23.4787 11.4231 22.4263 12.1074C21.3738 12.7804 20.0162 13.1169 18.3536 13.1169ZM18.3536 2.20158C17.6215 2.20158 17.0189 2.36696 16.5461 2.69773C16.0732 3.01709 15.8368 3.46191 15.8368 4.0322C15.8368 4.57967 16.0656 5.01309 16.5232 5.33245C16.9961 5.6404 17.6062 5.79438 18.3536 5.79438C19.101 5.79438 19.7035 5.6404 20.1611 5.33245C20.634 5.01309 20.8704 4.57967 20.8704 4.0322C20.8704 3.46191 20.634 3.01709 20.1611 2.69773C19.6883 2.36696 19.0858 2.20158 18.3536 2.20158Z" fill="#A4A7B5"/>
</svg>
