<svg width="22" height="8" viewBox="0 0 22 8" fill="none" xmlns="http://www.w3.org/2000/svg">
<path d="M9.94251 6.81944V7.83684H0.374557C0.387902 6.77954 1.41542 5.89846 3.45712 5.19359C4.09765 4.9808 4.73151 4.76801 5.3587 4.55522C6.0793 4.30253 6.61975 4.06314 6.98005 3.83705C7.43376 3.54447 7.66728 3.23193 7.68063 2.89945C7.69397 2.58026 7.54718 2.31095 7.24026 2.09151C6.83993 1.80558 6.1994 1.66261 5.31867 1.66261C3.78406 1.66261 2.98339 2.24445 2.91667 3.40815H0.634774C0.634774 2.61019 1.04845 1.96849 1.87581 1.48307C2.74319 0.97104 3.93752 0.715027 5.45878 0.715027C7.00674 0.715027 8.18772 0.961065 9.00173 1.45314C9.64226 1.84547 9.96252 2.31428 9.96252 2.85955C9.96252 3.70406 8.92166 4.48872 6.83993 5.21354C6.06595 5.47288 5.29198 5.73221 4.518 5.99155C3.75737 6.28414 3.29031 6.5601 3.11684 6.81944H9.94251Z" fill="#A1A4B2"/>
<path d="M11.417 1.87207V0.85467H21.005V1.80225C17.8424 3.58437 16.1009 5.59589 15.7806 7.83684H13.2786C13.4253 6.77954 14.0058 5.71226 15.02 4.63502C15.9541 3.64421 17.1751 2.72323 18.6831 1.87207H11.417Z" fill="#A1A4B2"/>
</svg>
