<svg width="10" height="9" viewBox="0 0 10 9" fill="none" xmlns="http://www.w3.org/2000/svg">
<path d="M9.04759 7.07864V8.12675H0.0984497C0.110931 7.03754 1.072 6.12986 2.98165 5.40372C3.58075 5.1845 4.17362 4.96529 4.76024 4.74608C5.43424 4.48576 5.93973 4.23915 6.27673 4.00624C6.7011 3.70482 6.91952 3.38285 6.932 3.04033C6.94448 2.71151 6.80719 2.43407 6.52012 2.20801C6.14568 1.91344 5.54657 1.76616 4.7228 1.76616C3.28744 1.76616 2.53856 2.36557 2.47615 3.56439H0.341837C0.341837 2.74234 0.728759 2.08128 1.5026 1.5812C2.31389 1.05372 3.43098 0.789978 4.85385 0.789978C6.30169 0.789978 7.40629 1.04344 8.16766 1.55037C8.76676 1.95455 9.06632 2.4375 9.06632 2.99923C9.06632 3.86923 8.09277 4.67758 6.14568 5.42427C5.42176 5.69143 4.69784 5.9586 3.97392 6.22576C3.26248 6.52718 2.82563 6.81147 2.66337 7.07864H9.04759Z" fill="#A1A4B2"/>
</svg>
