<svg width="415" height="896" viewBox="0 0 415 896" fill="none" xmlns="http://www.w3.org/2000/svg">
<g clip-path="url(#clip0_3_2856)">
<rect width="414" height="896" transform="translate(0.5)" fill="#03174C"/>
<path d="M224.475 71.1945C249.93 35.0578 257.637 -0.575993 258.871 -2.63062H421.646V294.925C298.21 342.707 230.55 266.707 212.15 222.734C172.347 154.288 208.935 94.2613 224.475 71.1945Z" fill="#1F265E"/>
<path d="M423.537 -0.0801651V185.165C316.571 129.013 328.791 2.08889 329.024 -0.0801651C329.257 -2.24922 423.537 -0.0801651 423.537 -0.0801651Z" fill="#2B3166"/>
<g filter="url(#filter0_f_3_2856)">
<path d="M59.0432 415.944C69.3514 349.555 30.5756 284.707 -32.8033 262.349C-39.8164 259.874 -43.7828 252.46 -41.9659 245.248L-34.5601 215.826C-32.5042 207.667 -23.9333 203.021 -15.9507 205.696C4.3992 212.517 23.3356 222.492 40.5025 235.454C61.0695 250.983 78.2291 270.111 91.506 292.312C104.783 314.514 113.512 338.68 117.454 364.139C120.743 385.394 120.571 406.785 116.944 427.934C115.52 436.227 107.368 441.576 99.2042 439.523L69.772 432.113C62.5579 430.295 57.9004 423.289 59.0432 415.944Z" fill="#1E255E"/>
</g>
<g filter="url(#filter1_f_3_2856)">
<path d="M358.135 416.772C350.305 483.499 391.467 546.858 455.635 566.842C462.735 569.054 466.975 576.315 465.427 583.59L459.122 613.267C457.371 621.497 448.979 626.459 440.902 624.083C420.313 618.024 401.018 608.761 383.381 596.447C362.25 581.694 344.39 563.218 330.296 541.527C316.202 519.835 306.58 496.009 301.693 470.715C297.614 449.597 296.99 428.214 299.828 406.946C300.942 398.605 308.89 392.957 317.124 394.704L346.811 401.013C354.088 402.561 359.003 409.389 358.135 416.772Z" fill="#1E255E"/>
</g>
<path d="M98.2922 915.498C87.703 854.751 34.8998 809.798 -26.7787 809.026C-33.6038 808.94 -39.235 803.663 -39.7793 796.859L-42.0056 769.102C-42.6212 761.403 -36.5386 754.841 -28.8117 754.816C-9.1131 754.753 10.2853 757.847 29.0252 764.06C51.4768 771.503 72.026 783.077 90.1051 798.467C108.184 813.856 122.889 832.294 133.813 853.264C142.931 870.772 149.08 889.418 152.155 908.87C153.36 916.498 147.848 923.549 140.147 924.168L112.38 926.394C105.573 926.938 99.4616 922.219 98.2922 915.498Z" fill="#1F265E"/>
<g opacity="0.5">
<path d="M325.661 785.464C357.102 838.509 422.414 861.818 480.359 840.67C486.771 838.33 493.907 841.268 496.829 847.437L508.753 872.601C512.058 879.581 508.698 887.873 501.482 890.637C483.085 897.681 463.85 901.666 444.125 902.502C420.493 903.503 397.175 899.967 374.814 891.988C352.452 884.009 332.166 871.984 314.516 856.249C299.782 843.112 287.421 827.858 277.648 810.76C273.817 804.055 276.471 795.508 283.452 792.198L308.625 780.271C314.797 777.349 322.185 779.594 325.661 785.464Z" fill="#1F265E"/>
</g>
</g>
<defs>
<filter id="filter0_f_3_2856" x="-112.405" y="134.938" width="302.204" height="375.025" filterUnits="userSpaceOnUse" color-interpolation-filters="sRGB">
<feFlood flood-opacity="0" result="BackgroundImageFix"/>
<feBlend mode="normal" in="SourceGraphic" in2="BackgroundImageFix" result="shape"/>
<feGaussianBlur stdDeviation="35" result="effect1_foregroundBlur_3_2856"/>
</filter>
<filter id="filter1_f_3_2856" x="228.083" y="324.386" width="307.662" height="370.292" filterUnits="userSpaceOnUse" color-interpolation-filters="sRGB">
<feFlood flood-opacity="0" result="BackgroundImageFix"/>
<feBlend mode="normal" in="SourceGraphic" in2="BackgroundImageFix" result="shape"/>
<feGaussianBlur stdDeviation="35" result="effect1_foregroundBlur_3_2856"/>
</filter>
<clipPath id="clip0_3_2856">
<rect width="414" height="896" fill="white" transform="translate(0.5)"/>
</clipPath>
</defs>
</svg>
