<svg width="415" height="896" viewBox="0 0 415 896" fill="none" xmlns="http://www.w3.org/2000/svg">
<g clip-path="url(#clip0_1_3480)">
<circle cx="207.5" cy="615" r="246" fill="#9AA2FD"/>
<circle cx="207.5" cy="615" r="246" fill="#949DFF"/>
<circle cx="215" cy="629" r="211" fill="#9AA2FD"/>
<circle cx="215" cy="629" r="211" fill="#99A1FF"/>
<circle cx="207.5" cy="615" r="177" fill="#9AA2FD"/>
<circle cx="207.5" cy="615" r="177" fill="#9EA6FF"/>
<path d="M296.9 424C295.329 415.773 286.645 411.573 282.5 410.502C292.449 407.931 297.118 415.858 298.209 420.143C309.205 413.973 316.318 418.001 318.5 420.786C310.122 418.215 300.609 421.857 296.9 424Z" fill="#B4BAFF"/>
<path d="M62.3 440C61.34 435.299 56.0333 432.899 53.5 432.287C59.58 430.818 62.4333 435.348 63.1 437.796C69.82 434.27 74.1667 436.572 75.5 438.164C70.38 436.694 64.5667 438.776 62.3 440Z" fill="#B4BAFF"/>
<circle cx="207.5" cy="615" r="142" fill="#A3ABFF"/>
<rect x="-1.5" y="654" width="416" height="266" fill="#8C96FF"/>
<path d="M345.748 461.025C297.749 447.525 304.748 488.025 314.748 488.025C318.857 488.025 327.373 489.025 337.749 489.025H369.249C409.248 489.025 420.749 486.358 421.249 485.525C424.749 459.025 403.582 461.525 392.249 464.525C394.082 454.692 392.149 434.825 369.748 434.025C347.348 433.225 344.415 451.692 345.748 461.025Z" fill="#B4BAFF"/>
<path d="M8.25573 385.787C-12.7717 379.899 -9.70541 397.564 -5.3247 397.564C-3.5249 397.564 0.205866 398 4.75144 398H18.5509C36.0738 398 41.1117 396.837 41.331 396.473C42.8643 384.915 33.5916 386.005 28.6267 387.314C29.4299 383.025 28.5828 374.36 18.7696 374.011C8.95638 373.662 7.67151 381.717 8.25573 385.787Z" fill="#A6ADFB"/>
<circle cx="39.5" cy="363" r="6" fill="#A6ADFB"/>
<circle cx="3" cy="3" r="3" transform="matrix(1 0 0 -1 27.5 352)" fill="#A6ADFB"/>
</g>
<defs>
<clipPath id="clip0_1_3480">
<rect width="414" height="896" fill="white" transform="translate(0.5)"/>
</clipPath>
</defs>
</svg>
