<svg width="21" height="17" viewBox="0 0 21 17" fill="none" xmlns="http://www.w3.org/2000/svg">
<g clip-path="url(#clip0_3_1575)">
<path d="M20.7349 11.3326V14.3326C20.7349 15.7126 19.6149 16.8326 18.2349 16.8326H16.2349C15.9549 16.8326 15.7349 16.6026 15.7349 16.3326V9.33263C15.7349 9.05263 15.9549 8.83263 16.2349 8.83263H16.7349V8.82263H17.7349V8.83263H18.2349C19.6149 8.83263 20.7349 9.95263 20.7349 11.3326Z" fill="#E6E7F2"/>
<path d="M5.73486 9.33263V16.3326C5.73486 16.6026 5.51486 16.8326 5.23486 16.8326H3.23486C1.85486 16.8326 0.734863 15.7126 0.734863 14.3326V11.3326C0.734863 9.95263 1.85486 8.83263 3.23486 8.83263H3.73486V8.82263H4.73486V8.83263H5.23486C5.51486 8.83263 5.73486 9.04263 5.73486 9.33263Z" fill="#E6E7F2"/>
<path d="M17.7349 7.81262V8.82262H16.7349V7.81262C16.7349 4.50262 14.0449 1.81262 10.7349 1.81262C7.42486 1.81262 4.73486 4.50262 4.73486 7.81262V8.82262H3.73486V7.81262C3.73486 3.95262 6.86486 0.812622 10.7349 0.812622C14.6049 0.812622 17.7349 3.95262 17.7349 7.81262Z" fill="#E6E7F2" stroke="#E6E7F2" stroke-width="0.25" stroke-miterlimit="10"/>
</g>
<defs>
<clipPath id="clip0_3_1575">
<rect width="20" height="16.15" fill="white" transform="translate(0.734863 0.682617)"/>
</clipPath>
</defs>
</svg>
