<svg width="107" height="94" viewBox="0 0 107 94" fill="none" xmlns="http://www.w3.org/2000/svg">
<path d="M49.1817 33.4955C49.1817 33.4955 47.8302 48.436 53.4285 48.2109C59.4339 47.9663 57.8185 33.4955 57.8185 33.4955C57.0337 31.163 56.721 29.7799 57.0727 27.3333H49.7809C50.1327 29.7799 49.9633 31.163 49.1817 33.4955Z" fill="#FDBCA0"/>
<path d="M49.9274 30.2234C50.7546 30.4713 51.5883 30.6996 52.4514 30.7714C53.2688 30.8399 54.109 30.7877 54.9232 30.6996C55.6006 30.6246 56.3236 30.5039 57.001 30.2788C56.8935 29.3915 56.9098 28.4781 57.0759 27.3298H49.7841C49.9437 28.4553 49.9925 29.3556 49.9274 30.2234Z" fill="#F0A38B"/>
<path d="M53.4283 29.3721C55.5094 29.3721 57.5122 28.5501 58.9778 27.069C60.7234 25.3075 62.0912 23.3437 62.4918 21.0374C63.0063 18.0754 62.0065 15.1166 59.8245 12.7353H47.0288C44.8468 15.1133 43.847 18.0754 44.3616 21.0374C44.7621 23.3437 46.1332 25.3075 47.8756 27.069C49.3444 28.5468 51.3473 29.3721 53.4283 29.3721Z" fill="#FDBCA0"/>
<path d="M54.0635 35.2375C53.7997 35.5279 53.5522 35.8443 53.3177 36.1607C53.0344 35.965 52.8097 35.7268 52.5622 35.4822C52.5394 35.4593 52.4938 35.4822 52.5035 35.5148C52.6436 35.8997 52.9367 36.2129 53.2363 36.4804C53.3014 36.5359 53.3926 36.5424 53.4578 36.4804C53.7737 36.1705 54.0831 35.8084 54.3273 35.4365C54.4315 35.2832 54.1905 35.0972 54.0635 35.2375Z" fill="#DF8370"/>
<path d="M61.1046 34.6666C59.1603 34.833 57.2421 35.1494 55.35 35.6322C55.236 35.6616 55.2848 35.8345 55.3988 35.8084C57.2812 35.3908 59.1831 35.107 61.1046 34.9765C61.3065 34.9635 61.3033 34.6503 61.1046 34.6666Z" fill="#DF8370"/>
<path d="M45.7491 34.6666C47.6934 34.833 49.6116 35.1494 51.5037 35.6322C51.6177 35.6616 51.5689 35.8345 51.4549 35.8084C49.5725 35.3908 47.6706 35.107 45.7491 34.9765C45.5504 34.9635 45.5504 34.6503 45.7491 34.6666Z" fill="#DF8370"/>
<path d="M46.0844 7.80951C43.365 9.36881 41.4501 11.8252 41.4175 15.1265C41.3849 18.8486 45.9118 24.7758 45.8499 24.629C44.3453 21.0081 43.9512 16.0235 47.7062 13.528C48.0808 13.2801 48.5497 13.1366 48.8852 12.8462C48.8754 10.8792 47.7909 8.97409 46.0844 7.80951Z" fill="#3F4553"/>
<path d="M60.5049 7.80951C63.2243 9.36881 65.1392 11.8252 65.1718 15.1265C65.2044 18.8486 62.98 22.1596 60.7654 24.9716C61.3289 23.745 62.6348 16.0203 58.8798 13.528C58.5053 13.2801 58.0363 13.1366 57.7009 12.8462C57.7139 10.8792 58.8016 8.97409 60.5049 7.80951Z" fill="#424495"/>
<path d="M99.5503 5.83924C97.4725 4.80515 95.0463 4.58332 92.7861 5.04328C91.6918 5.26511 90.6562 5.6533 89.6694 6.17851C89.0148 6.52429 88.3504 7.02013 87.5884 7.07885C86.6635 7.14736 85.8525 6.54386 85.1654 6.00887C83.0289 4.34519 80.8567 2.88702 78.108 2.48578C76.7793 2.29005 75.2942 2.43358 74.2651 3.24911C73.2099 1.85292 71.6369 0.857975 69.9043 0.492617C67.6116 0.00982185 65.4328 0.698131 63.6319 2.08127C62.6158 1.58217 60.8376 0.864499 60.6129 0.802519C53.8389 -1.06342 44.5898 3.66993 45.7882 11.6524C46.8174 18.5126 55.49 21.6834 61.4987 20.2742C62.7949 22.7305 65.9018 23.3014 68.2955 22.0227C68.4779 22.1629 68.6603 22.3032 68.8459 22.4402C72.666 25.2456 77.1115 27.0692 81.9119 26.2406C83.7357 25.9242 85.4422 25.2652 87.0119 24.3192C88.5035 25.4414 90.4673 25.7969 92.2748 24.9292C93.6198 24.2866 94.5219 23.0992 94.8444 21.7552C94.8672 21.7552 94.8899 21.7552 94.9127 21.7552C98.9055 21.7062 103.139 19.7196 104.159 15.5278C105.087 11.7176 103.022 7.56491 99.5503 5.83924Z" fill="#4E5567"/>
<path d="M81.3972 4.59642C82.7097 5.66966 83.488 7.14088 82.6706 8.76216C82.0062 10.0833 80.811 11.0457 79.9415 12.2168C78.9221 13.5869 78.7462 15.3451 80.4169 16.3466C82.0616 17.3318 84.1231 16.1052 85.4942 15.1755C87.1877 14.024 89.0049 10.6933 90.4639 9.26453C96.9448 2.91969 103.38 9.70166 103.406 9.72449C102.566 8.07385 101.224 6.6744 99.5502 5.83929C97.4724 4.8052 95.0462 4.58337 92.786 5.04334C91.6917 5.26516 90.6561 5.65335 89.6693 6.17856C89.0147 6.52434 88.3503 7.02019 87.5883 7.0789C86.6633 7.14741 85.8524 6.54391 85.1652 6.00893C83.0288 4.34524 80.8566 2.88707 78.1079 2.48583C76.8085 2.29662 75.3592 2.43363 74.3334 3.20349C76.5707 2.33251 79.6028 3.1252 81.3972 4.59642Z" fill="#3F4553"/>
<path d="M98.6577 20.6788C97.0717 20.8647 95.5866 20.7766 94.1276 20.1275C93.499 21.7618 92.2126 23.4124 90.3954 23.6701C89.1741 23.843 87.7314 23.4614 87.4806 22.1663C78.8959 29.1668 69.2722 21.3573 68.3441 19.8926C65.667 21.6411 62.2931 19.5077 61.2932 16.7773C59.2545 17.57 56.9032 17.3253 54.9231 16.4739C51.2332 14.8918 49.188 10.5303 50.4777 6.68098C51.5524 3.48083 54.415 1.29195 57.5871 0.401384C51.4026 0.365501 44.7621 4.81504 45.788 11.6525C46.8171 18.5127 55.4865 21.6835 61.4984 20.2743C62.7946 22.7307 65.9015 23.3015 68.2952 22.0228C68.4776 22.163 68.66 22.3033 68.8456 22.4403C72.6657 25.2458 77.1112 27.0693 81.9116 26.2407C83.7354 25.9243 85.4419 25.2653 87.0116 24.3193C88.5032 25.4415 90.467 25.797 92.2745 24.9293C93.6195 24.2867 94.5216 23.0993 94.8441 21.7553C94.8669 21.7553 94.8897 21.7553 94.9124 21.7553C96.8176 21.7324 98.7749 21.266 100.416 20.333C99.8399 20.5059 99.2406 20.6103 98.6577 20.6788Z" fill="#3F4553"/>
<path d="M51.142 22.786C50.0022 22.9752 48.1491 23.0372 47.0972 21.9085C46.8887 21.6834 46.6054 21.9379 46.8659 22.163C46.9083 22.1989 46.9506 22.2315 46.9929 22.2641C46.8692 22.3 46.7389 22.3163 46.6021 22.3065C46.5989 22.3065 46.5989 22.3098 46.6021 22.313C46.7682 22.3685 46.9376 22.3848 47.1037 22.3522C47.1069 22.3554 47.1102 22.3587 47.1135 22.3587C46.9702 22.4533 46.7975 22.4925 46.6282 22.5479C46.6249 22.5479 46.6249 22.5512 46.6282 22.5544C46.8366 22.574 47.0548 22.5479 47.2274 22.437C47.247 22.45 47.2665 22.4566 47.2861 22.4696C47.1558 22.5707 47.0092 22.6458 46.8431 22.6849C46.8269 22.6882 46.8301 22.7143 46.8464 22.7143C47.0581 22.7241 47.26 22.6719 47.4294 22.5544C47.4652 22.574 47.5043 22.5903 47.5401 22.6099C47.4196 22.698 47.2958 22.7763 47.1558 22.8415C47.1428 22.848 47.1493 22.8709 47.1623 22.8709C47.3479 22.8774 47.5108 22.7828 47.6573 22.6719C47.7029 22.6947 47.7485 22.711 47.7974 22.7306C47.7355 22.7926 47.6638 22.8513 47.5954 22.91C47.5857 22.9198 47.5954 22.9328 47.6085 22.9328C47.7257 22.9035 47.8332 22.8545 47.9244 22.786C48.9698 23.2166 50.1943 23.2297 51.243 22.8513C51.3537 22.8056 51.269 22.7665 51.142 22.786Z" fill="#3F4553"/>
<path d="M55.8219 22.786C56.9618 22.9752 58.8149 23.0372 59.8668 21.9085C60.0752 21.6834 60.3585 21.9379 60.098 22.163C60.0557 22.1989 60.0133 22.2315 59.971 22.2641C60.098 22.3 60.225 22.3163 60.3618 22.3065C60.3651 22.3065 60.3651 22.3098 60.3618 22.313C60.1957 22.3685 60.0264 22.3848 59.8603 22.3522C59.857 22.3554 59.8538 22.3587 59.8505 22.3587C59.9938 22.4533 60.1664 22.4925 60.3357 22.5479C60.339 22.5479 60.339 22.5512 60.3357 22.5544C60.1273 22.574 59.9091 22.5479 59.7365 22.437C59.717 22.45 59.6974 22.4566 59.6779 22.4696C59.8082 22.5707 59.9547 22.6458 60.1208 22.6849C60.1371 22.6882 60.1338 22.7143 60.1175 22.7143C59.9059 22.7241 59.7039 22.6719 59.5346 22.5544C59.4988 22.574 59.4597 22.5903 59.4239 22.6099C59.5444 22.698 59.6681 22.7763 59.8082 22.8415C59.8212 22.848 59.8147 22.8709 59.8016 22.8709C59.616 22.8774 59.4532 22.7828 59.3066 22.6719C59.261 22.6947 59.2154 22.711 59.1698 22.7306C59.2317 22.7926 59.3034 22.8513 59.3718 22.91C59.3815 22.9198 59.3718 22.9328 59.3587 22.9328C59.2415 22.9035 59.134 22.8545 59.0428 22.786C57.9974 23.2166 56.7729 23.2297 55.721 22.8513C55.6135 22.8056 55.6949 22.7665 55.8219 22.786Z" fill="#3F4553"/>
<path d="M54.2001 25.1642C53.666 25.4415 53.1352 25.5524 52.5848 25.2197C52.5457 25.1968 52.5001 25.2523 52.5359 25.2849C53.0082 25.7057 53.8484 25.8134 54.3206 25.3208C54.3988 25.236 54.3011 25.112 54.2001 25.1642Z" fill="#3F4553"/>
<path d="M55.4213 27.0887C54.7536 27.2877 54.0958 27.3627 53.4444 27.3333C52.7931 27.3627 52.1352 27.2877 51.4676 27.0887C51.4513 27.0821 51.4383 27.1115 51.4546 27.118C52.0961 27.392 52.7703 27.5388 53.4444 27.5552C54.1186 27.5388 54.7927 27.392 55.4343 27.118C55.4506 27.1115 55.4375 27.0854 55.4213 27.0887Z" fill="#3F4553"/>
<path d="M50.383 24.3845C50.3277 24.3584 50.2691 24.3356 50.2104 24.3193C49.4647 24.1268 48.5821 23.7614 47.8037 23.8952C47.2533 23.9898 47.1263 24.6585 47.439 25.0532C47.7744 25.4773 48.4323 25.598 48.9403 25.6372C49.4516 25.6763 50.2528 25.7318 50.6338 25.3305C50.979 24.9684 50.7445 24.5607 50.383 24.3845Z" fill="#FBAD8B"/>
<path d="M56.4794 24.3845C56.5348 24.3584 56.5934 24.3356 56.6521 24.3193C57.3978 24.1268 58.2804 23.7614 59.0588 23.8952C59.6092 23.9898 59.7362 24.6585 59.4235 25.0532C59.0881 25.4773 58.4302 25.598 57.9222 25.6372C57.4109 25.6763 56.6097 25.7318 56.2287 25.3305C55.8835 24.9684 56.1212 24.5607 56.4794 24.3845Z" fill="#FBAD8B"/>
<path d="M43.5931 19.501C42.8213 19.3868 41.994 19.7065 42.1341 20.6232C42.2448 21.3539 43.0297 22.0813 44.2282 21.8628C43.9025 21.1059 43.6778 20.31 43.5931 19.501Z" fill="#F9CDB9"/>
<path d="M42.8472 20.2188C43.0589 20.0426 43.3879 19.9643 43.6712 20.01C43.6549 19.9219 43.6451 19.8306 43.6321 19.7425C43.2446 19.7066 42.7886 19.8665 42.5672 20.147C42.2219 20.5874 42.4825 21.0767 42.8635 21.3768C42.9189 21.4225 42.997 21.3507 42.9449 21.2953C42.6681 21.0017 42.476 20.5287 42.8472 20.2188Z" fill="#F8C4AB"/>
<path d="M43.8244 20.708C43.6225 20.5253 43.3587 20.4242 43.0558 20.4372C42.9874 20.4405 42.9614 20.5546 43.0395 20.5644C43.3163 20.6036 43.5541 20.7471 43.7006 20.9689C43.5313 21.0603 43.4075 21.2593 43.5801 21.4224C43.7169 21.5529 43.9188 21.5822 44.111 21.5626C44.0035 21.2821 43.9025 20.9983 43.8244 20.708Z" fill="#F8C4AB"/>
<path d="M43.5248 21.6507C43.5216 21.6475 43.5151 21.6507 43.5183 21.654C43.6421 21.9606 43.818 22.6783 43.3946 22.8251C43.1112 22.923 43.0852 22.5576 43.1275 22.3651C43.1666 22.189 43.2643 22.0063 43.3457 21.8497C43.3457 21.8497 43.1503 21.8073 42.9712 21.716C42.7269 21.9248 42.639 22.2347 42.6814 22.5609C42.7204 22.8577 42.9093 23.1839 43.2448 23.1937C43.5444 23.2035 43.7593 22.9458 43.8049 22.6718C43.857 22.3162 43.7137 21.9411 43.5248 21.6507Z" fill="#FDCA27"/>
<path d="M105.845 77.8311C104.015 75.6487 100.055 75.4726 97.4561 75.2018C89.6432 74.3863 81.6316 74.5885 73.8155 75.2214C69.9237 75.5378 66.0514 76.0108 62.1955 76.6339C59.4044 77.0873 56.2878 77.4037 53.5 78.2976C50.7122 77.4037 47.5955 77.0841 44.8045 76.6339C40.9518 76.0076 37.0763 75.5346 33.1845 75.2214C25.3684 74.5885 17.3536 74.3863 9.54393 75.2018C6.94832 75.4726 2.98488 75.6487 1.1546 77.8311C-0.613806 79.9384 1.5682 82.4927 3.24867 83.8334C5.57072 85.6863 8.51806 86.5997 11.3319 87.3989C14.8654 88.3971 18.4804 89.0756 22.1149 89.5911C38.3823 91.8876 47.2145 90.1946 55.7178 90.0902C56.0435 90.5045 56.3496 90.9351 56.6297 91.382C65.2503 91.4374 76.3231 90.7491 84.8818 89.5911C88.5196 89.0985 92.1313 88.4004 95.6649 87.3989C98.4819 86.6029 101.426 85.6896 103.748 83.8334C105.429 82.4927 107.611 79.9384 105.845 77.8311Z" fill="#93BFA8"/>
<path d="M94.3035 79.3416C94.5738 78.9958 96.2119 78.5684 96.8568 78.2814C93.8182 78.526 90.7667 78.8914 87.7347 79.2046C81.967 79.7983 76.1928 81.3282 70.728 83.2431C68.1129 84.1597 65.5042 85.1221 62.9054 86.0876C60.8471 86.851 58.8117 87.6861 56.8804 88.7267C57.1768 88.6354 57.4732 88.544 57.7695 88.456C60.8504 87.5491 73.4051 80.7475 96.6516 79.9092C96.1142 79.7917 94.1993 79.4753 94.3035 79.3416Z" fill="#66A986"/>
<path d="M13.0384 78.8619C12.7681 78.5161 11.1299 78.0888 10.4851 77.8017C13.5236 78.0464 16.5752 78.4117 19.6072 78.7249C25.3749 79.3186 31.149 80.8485 36.6138 82.7634C39.229 83.68 41.8376 84.6424 44.4365 85.608C46.4948 86.3713 48.5302 87.2064 50.4614 88.247C50.1651 88.1557 49.8687 88.0643 49.5724 87.9763C46.4915 87.0694 33.9368 80.2679 10.6903 79.4295C11.2244 79.3121 13.1393 78.9956 13.0384 78.8619Z" fill="#66A986"/>
<path d="M61.3585 86.0746C60.0493 85.5494 58.6652 85.5364 57.3918 86.0811C55.2163 87.0174 52.5491 85.582 50.2889 85.8398C48.2079 86.0779 46.941 88.4494 48.5335 89.9631C48.9178 90.3284 52.7803 91.7311 58.8997 88.8735C59.5706 88.5604 60.2252 88.3809 60.984 88.3907C61.1599 88.394 61.326 88.5604 61.5116 88.5408C61.9089 88.4919 62.2346 88.4201 62.4561 88.0352C62.9771 87.1283 62.1076 86.3747 61.3585 86.0746Z" fill="#FDB597"/>
<path d="M46.0844 90.8862C47.1884 90.0087 48.5139 89.5977 49.885 89.7575C52.2363 90.0316 54.3825 87.8916 56.6231 87.4904C58.6846 87.1218 60.5768 89.0301 59.4825 90.9417C59.2187 91.4016 55.9164 93.8515 49.2369 92.8663C48.5041 92.7587 47.8267 92.775 47.1037 93.0001C46.9376 93.0523 46.8236 93.2611 46.638 93.2937C46.2439 93.3622 45.9117 93.385 45.5893 93.0816C44.8338 92.3607 45.4526 91.3886 46.0844 90.8862Z" fill="#FDBCA0"/>
<path d="M90.4667 37.2959C89.7144 37.684 88.923 38.1212 88.1838 38.5289C88.5746 38.2092 90.7435 35.9975 91.587 35.4528C91.6782 35.394 91.4633 34.497 89.2455 36.2715C88.5843 36.8 87.8027 37.335 87.1807 37.9124C87.9721 36.4086 88.6332 34.8851 89.6688 33.5085C89.7112 33.4531 89.6981 33.3911 89.6623 33.3487C89.4506 33.1823 88.9198 33.3715 88.682 33.626C88.2587 34.0761 86.6498 35.8181 85.8682 37.6547C85.8813 37.0251 85.8259 36.0041 85.3797 35.7953C85.0996 35.6615 84.6339 35.8377 84.3343 35.8605C83.7448 35.9029 82.973 35.9877 82.4226 35.7529C82.3412 35.7202 82.136 35.6941 82.2109 35.9649C82.4617 36.8522 83.6992 36.9631 84.4678 37.1588C84.7284 37.7917 83.9956 38.8291 83.5332 39.1422C82.7809 39.6544 81.6833 39.152 81.8722 38.1473C82.0383 37.2632 82.5659 36.862 82.1002 35.9943C81.9471 35.7072 81.2893 35.4462 81.4358 35.9095C81.8136 37.0936 80.7291 38.0886 80.5891 39.2336C80.4784 40.1404 80.9571 40.9462 81.4391 41.6736C81.4098 41.7487 81.387 41.8237 81.3609 41.8955C80.7063 43.0307 80.1983 44.2279 79.8303 45.4805C80.6705 45.7578 83.1391 45.5817 83.1293 45.5621C83.1391 45.5817 83.4257 43.8266 84.0835 43.0861C84.8033 42.2739 85.7086 41.6475 86.5749 41.0082C88.3954 39.6609 90.2453 38.3528 92.1211 37.0806C92.2286 37.012 92.1407 36.4314 90.4667 37.2959Z" fill="#FDBCA0"/>
<path d="M16.7314 37.2959C17.4837 37.684 18.2751 38.1212 19.0144 38.5289C18.6236 38.2092 16.4546 35.9975 15.6111 35.4528C15.5199 35.394 15.7349 34.497 17.9527 36.2715C18.6138 36.8 19.3954 37.335 20.0175 37.9124C19.2261 36.4086 18.565 34.8851 17.5293 33.5085C17.487 33.4531 17.5 33.3911 17.5358 33.3487C17.7475 33.1823 18.2784 33.3715 18.5161 33.626C18.9395 34.0761 20.5483 35.8181 21.3299 37.6547C21.3169 37.0251 21.3723 36.0041 21.8184 35.7953C22.0985 35.6615 22.5642 35.8377 22.8638 35.8605C23.4533 35.9029 24.2251 35.9877 24.7755 35.7529C24.857 35.7202 25.0621 35.6941 24.9872 35.9649C24.7365 36.8522 23.4989 36.9631 22.7303 37.1588C22.4698 37.7917 23.2025 38.8291 23.665 39.1422C24.4173 39.6544 25.5148 39.152 25.3259 38.1473C25.1598 37.2632 24.6322 36.862 25.098 35.9943C25.251 35.7072 25.9089 35.4462 25.7623 35.9095C25.3845 37.0936 26.469 38.0886 26.6091 39.2336C26.7198 40.1404 26.2411 40.9462 25.7591 41.6736C25.7884 41.7487 25.8112 41.8237 25.8372 41.8955C26.4918 43.0307 26.9999 44.2279 27.3679 45.4805C26.5277 45.7578 24.0591 45.5817 24.0688 45.5621C24.0591 45.5817 23.7725 43.8266 23.1146 43.0861C22.3949 42.2739 21.4895 41.6475 20.6232 41.0082C18.8027 39.6609 16.9529 38.3528 15.077 37.0806C14.9695 37.012 15.0575 36.4314 16.7314 37.2959Z" fill="#FDBCA0"/>
<path d="M78.9514 44.3258C77.7301 47.4803 73.5876 59.1261 71.8583 64.0649C70.8291 61.4226 68.0479 49.9497 65.7063 36.6304C64.9768 32.4908 60.3164 33.0812 57.8218 33.4955C57.6426 36.2749 54.9493 43.98 53.5033 43.9963C52.0574 43.98 49.1914 36.8196 49.1849 33.4955C46.6935 33.0812 42.0299 32.4908 41.3004 36.6304C38.9555 49.9497 36.1776 61.4259 35.1484 64.0649C33.4158 59.1261 29.2765 47.4803 28.0553 44.3258C26.4888 45.0663 24.7562 45.4741 23.0269 45.5752C24.3654 49.1407 28.7848 74.3896 35.2982 74.3896C38.1218 74.3896 39.9098 71.3852 42.7887 60.2548C42.932 62.1142 42.9809 65.6862 42.9092 69.4409C42.8571 72.1452 40.991 75.2703 38.4931 74.6669C37.9883 74.5462 37.3304 74.9278 37.9557 75.6063C38.1251 75.7923 38.3433 75.9293 38.568 76.0337C42.5575 77.9257 42.7138 80.754 45.0684 82.4014C46.4916 83.3963 48.2437 83.7095 49.9144 84.0487C51.7252 84.4141 53.5913 84.6881 55.4346 84.4108C58.4992 83.9509 60.8798 81.899 63.4168 80.294C64.8335 79.3969 66.273 78.6793 67.9372 78.4346C72.2198 77.805 71.9364 74.7778 71.0408 74.8397C68.0414 75.0453 64.091 71.2155 64.0682 67.0009C64.0519 64.1954 64.1072 61.7064 64.218 60.2548C67.0969 71.3852 68.8849 74.3896 71.7085 74.3896C78.2219 74.3896 82.6413 49.1407 83.9798 45.5752C82.2505 45.4741 80.5179 45.063 78.9514 44.3258Z" fill="#F2EDE4"/>
<path d="M61.7203 55.3517C61.6877 55.3746 61.6616 55.3974 61.6356 55.4202C61.1047 55.9389 60.6911 56.562 60.17 57.0905C59.649 57.6157 58.9748 58.056 58.2355 58.0528C56.4606 58.043 55.5715 55.9096 54.5033 54.8233C52.8619 53.1596 51.2694 56.9502 50.0481 57.6939C48.7943 58.4573 47.9443 57.9973 47.0194 57.0937C46.4527 56.5392 45.9707 55.9161 45.4464 55.3224C45.3096 55.1658 44.9969 55.3322 45.0816 55.5344C45.6939 57.0089 47.078 59.4555 48.905 59.4946C50.0253 59.5175 50.9437 58.8748 51.6797 58.0854C52.0412 57.6972 53.0378 55.6127 53.6859 55.8867C53.8064 55.9389 53.8911 56.0466 53.9725 56.151C54.2949 56.575 54.5945 57.0219 54.9397 57.4265C55.1189 57.6352 55.6367 57.981 55.6367 58.2681C56.3694 59.0151 57.3758 59.6023 58.4147 59.4751C59.4764 59.3446 60.3166 58.5127 60.9321 57.6352C61.3685 57.0122 61.7365 56.3402 62.0264 55.6355C62.0687 55.5344 62.1045 55.4072 62.0296 55.3256C61.9482 55.2408 61.8245 55.28 61.7203 55.3517Z" fill="#D9C9AC"/>
</svg>
