<svg width="26" height="26" viewBox="0 0 26 26" fill="none" xmlns="http://www.w3.org/2000/svg">
<g clip-path="url(#clip0_3_675)">
<path d="M22.8836 14.1199C23.1294 14.1199 23.3401 14.3215 23.3401 14.5824V16.646C23.3401 16.895 23.1411 17.1085 22.8836 17.1085H16.1537C15.9079 17.1085 15.6973 16.9069 15.6973 16.646V14.5824C15.6973 14.3334 15.8962 14.1199 16.1537 14.1199H22.8836ZM22.8836 12.3409H16.1537C14.9365 12.3409 13.9417 13.349 13.9417 14.5824V16.646C13.9417 17.8794 14.9365 18.8874 16.1537 18.8874H22.8836C24.1008 18.8874 25.0957 17.8794 25.0957 16.646V14.5824C25.0957 13.349 24.1008 12.3409 22.8836 12.3409Z" fill="#E6E7F2"/>
<path d="M16.9145 1.79774C17.1603 1.79774 17.371 1.99935 17.371 2.26026V9.07952C17.371 9.32857 17.172 9.54204 16.9145 9.54204H14.878C14.6322 9.54204 14.4215 9.34043 14.4215 9.07952V2.26026C14.4215 2.01121 14.6205 1.79774 14.878 1.79774H16.9145ZM16.9145 0.0187988H14.878C13.6607 0.0187988 12.6659 1.02686 12.6659 2.26026V9.07952C12.6659 10.3129 13.6607 11.321 14.878 11.321H16.9145C18.1317 11.321 19.1266 10.3129 19.1266 9.07952V2.26026C19.1266 1.02686 18.1434 0.0187988 16.9145 0.0187988Z" fill="#E6E7F2"/>
<path d="M10.6411 15.4956C10.8868 15.4956 11.0975 15.6972 11.0975 15.9581V22.7774C11.0975 23.0264 10.8985 23.2399 10.6411 23.2399H8.60453C8.35875 23.2399 8.14807 23.0383 8.14807 22.7774V15.9581C8.14807 15.7091 8.34704 15.4956 8.60453 15.4956H10.6411ZM10.6411 13.7167H8.60453C7.38731 13.7167 6.39246 14.7247 6.39246 15.9581V22.7774C6.39246 24.0108 7.38731 25.0189 8.60453 25.0189H10.6411C11.8583 25.0189 12.8531 24.0108 12.8531 22.7774V15.9581C12.8531 14.7247 11.8583 13.7167 10.6411 13.7167Z" fill="#E6E7F2"/>
<path d="M9.03765 8.0359C9.28344 8.0359 9.49411 8.23751 9.49411 8.49842V10.5738C9.49411 10.8229 9.29514 11.0364 9.03765 11.0364H2.30778C2.05029 11.0364 1.85132 10.8229 1.85132 10.5738V8.49842C1.85132 8.24937 2.05029 8.0359 2.30778 8.0359H9.03765ZM9.03765 6.25696H2.30778C1.09055 6.25696 0.0957031 7.26502 0.0957031 8.49842V10.5738C0.0957031 11.8072 1.09055 12.8153 2.30778 12.8153H9.03765C10.2549 12.8153 11.2497 11.8072 11.2497 10.5738V8.49842C11.2497 7.26502 10.2549 6.25696 9.03765 6.25696Z" fill="#E6E7F2"/>
</g>
<defs>
<clipPath id="clip0_3_675">
<rect width="25" height="25" fill="white" transform="translate(0.0957031 0.0187988)"/>
</clipPath>
</defs>
</svg>
