<svg width="28" height="26" viewBox="0 0 28 26" fill="none" xmlns="http://www.w3.org/2000/svg">
<g clip-path="url(#clip0_3_693)">
<path d="M23.7742 13.5735C23.2 19.7518 17.7332 24.295 11.555 23.7208C5.37675 23.1467 0.833571 17.6799 1.40771 11.5016C1.90696 6.10974 6.17556 1.85362 11.555 1.35437C8.68429 5.23605 9.50806 10.7028 13.3897 13.5735C16.4726 15.8451 20.6913 15.8451 23.7742 13.5735Z" stroke="#E6E7F2" stroke-width="2" stroke-linecap="round" stroke-linejoin="round"/>
<path d="M19.6802 8.65593C19.5554 8.55608 19.4057 8.51864 19.2559 8.53112H16.9468L19.1186 6.10975L19.3308 5.88509L19.4556 5.72283C19.493 5.67291 19.518 5.6105 19.5429 5.56058C19.5679 5.49817 19.5804 5.43576 19.5804 5.36087C19.5929 5.19862 19.518 5.04884 19.3807 4.96147C19.206 4.8741 19.0062 4.83666 18.8065 4.84914H16.0856C15.9483 4.83666 15.7986 4.88659 15.6862 4.97395C15.5864 5.04884 15.5365 5.17366 15.5365 5.29847C15.5365 5.48569 15.5989 5.59802 15.7237 5.64794C15.8984 5.69787 16.0856 5.72283 16.2728 5.71035H18.0327C17.9578 5.8102 17.8705 5.93501 17.7456 6.07231L17.2963 6.58404L16.6972 7.25803L16.0107 8.04435C15.7611 8.31894 15.5989 8.50616 15.524 8.60601C15.3617 8.81819 15.3867 9.10526 15.5739 9.29248C15.7237 9.40481 15.8984 9.45473 16.0731 9.44225H19.2684C19.4181 9.45473 19.5679 9.40481 19.6927 9.31744C19.7801 9.23007 19.83 9.11774 19.83 8.99293C19.83 8.85563 19.7801 8.7433 19.6802 8.65593Z" fill="#E6E7F2"/>
<path d="M26.8945 4.78671C26.7447 4.6619 26.5575 4.61198 26.3703 4.62446H23.4621L26.183 1.59151L26.4327 1.30444L26.5949 1.10474C26.6449 1.04233 26.6823 0.967443 26.7073 0.892555C26.7447 0.817667 26.7572 0.730299 26.7572 0.64293C26.7821 0.443229 26.6823 0.243529 26.5076 0.143678C26.2704 0.0563095 26.0208 0.00638443 25.7712 0.0188657H22.3638C22.189 0.00638443 22.0018 0.0563095 21.8645 0.168641C21.7522 0.268491 21.6773 0.418267 21.6898 0.580523C21.6898 0.817667 21.7647 0.954962 21.9269 1.00489C22.1516 1.06729 22.3763 1.09226 22.6134 1.09226H24.8101C24.7227 1.21707 24.5979 1.36684 24.4481 1.54158L23.874 2.19061L23.1251 3.01437L22.239 4.00039C21.9269 4.34987 21.7272 4.57453 21.6399 4.68686C21.4277 4.94897 21.4526 5.33589 21.7023 5.57303C21.8895 5.71033 22.1141 5.77273 22.3388 5.76025H26.3453C26.545 5.78522 26.7322 5.73529 26.8945 5.62296C27.0068 5.52311 27.0817 5.37333 27.0692 5.21108C27.0817 5.04882 27.0193 4.89904 26.8945 4.78671Z" fill="#E6E7F2"/>
</g>
<defs>
<clipPath id="clip0_3_693">
<rect width="26.972" height="25" fill="white" transform="translate(0.109619 0.0187988)"/>
</clipPath>
</defs>
</svg>
