<svg width="178" height="124" viewBox="0 0 178 124" fill="none" xmlns="http://www.w3.org/2000/svg">
<mask id="mask0_3_4675" style="mask-type:alpha" maskUnits="userSpaceOnUse" x="0" y="0" width="178" height="124">
<rect x="0.689453" y="0.150391" width="177" height="122.927" rx="10" fill="#AFDBC5"/>
</mask>
<g mask="url(#mask0_3_4675)">
<path d="M177.687 -3.5647H-6.00348V178.517H177.687V-3.5647Z" fill="#4C53B4"/>
<path d="M150.912 102.869C166.239 71.459 149.529 32.0278 113.59 14.7974C77.6505 -2.433 36.0916 9.06211 20.7651 40.4725C5.43856 71.8828 22.1484 111.314 58.0875 128.544C94.0265 145.775 135.586 134.28 150.912 102.869Z" fill="#5F65BF"/>
<path d="M166.809 16.1693C165.543 14.9074 163.822 14.3521 162.264 14.6835C163.256 13.56 163.401 11.7465 162.569 10.4446C161.722 9.11906 159.952 8.41623 158.359 8.77493C157.053 9.06808 155.953 9.94025 155.38 11.0855C155.514 10.1533 155.504 9.01163 155.051 7.89547C154.5 6.54078 153.357 5.52841 152.066 5.25347C150.492 4.91844 148.66 5.72142 147.609 7.20902C146.935 8.16313 146.485 9.3849 146.322 10.6522C146.072 9.78002 145.486 8.97886 144.681 8.49816C143.486 7.7844 141.867 7.76255 140.558 8.4399C139.338 9.07172 138.383 10.2935 138.002 11.7119C137.677 12.9282 137.754 14.2538 138.225 15.5648C137.091 14.5997 135.901 13.6747 134.305 13.9552C133.236 14.1427 132.352 14.7946 131.882 15.7432C131.413 16.6864 131.432 17.7698 131.93 18.7166C132.771 20.3153 134.492 21.3131 137.189 21.7665C139.055 22.0796 140.976 22.0997 142.833 22.1179C143.179 22.1215 143.522 22.1252 143.868 22.1306C144.139 22.1343 144.38 22.1397 144.602 22.147C146.125 22.1944 147.65 22.2253 149.132 22.2381C149.77 22.2435 150.403 22.2472 151.039 22.2472C153.344 22.2472 155.626 22.2071 157.846 22.1288C158.396 22.1088 158.954 22.0796 159.494 22.0523C160.291 22.0105 161.114 21.9686 161.924 21.9558C163.287 21.9322 164.505 21.8721 165.615 21.3805C166.574 20.9544 167.856 20.2242 167.942 18.8022C167.997 17.9009 167.584 16.9413 166.809 16.1693Z" fill="#93A1ED"/>
<path d="M175.602 44.9329C174.724 44.059 173.534 43.6748 172.454 43.9042C173.141 43.1249 173.242 41.8703 172.665 40.9672C172.079 40.0495 170.852 39.5615 169.75 39.8092C168.845 40.0131 168.084 40.6158 167.685 41.4097C167.777 40.7633 167.772 39.973 167.458 39.1992C167.077 38.2615 166.284 37.5605 165.389 37.3693C164.3 37.1362 163.031 37.6934 162.303 38.724C161.837 39.3849 161.524 40.2316 161.411 41.1092C161.238 40.5047 160.832 39.9494 160.275 39.618C159.447 39.1245 158.326 39.1081 157.419 39.5779C156.574 40.0149 155.913 40.8616 155.65 41.8448C155.424 42.6879 155.477 43.6056 155.804 44.5142C155.02 43.8459 154.195 43.205 153.089 43.3998C152.349 43.5291 151.737 43.9807 151.41 44.638C151.087 45.2916 151.098 46.0418 151.444 46.6973C152.026 47.8044 153.218 48.4963 155.086 48.8095C156.379 49.0261 157.709 49.0407 158.997 49.0535C159.236 49.0553 159.474 49.0589 159.713 49.0626C159.902 49.0662 160.068 49.0698 160.222 49.0735C161.276 49.1063 162.333 49.1281 163.36 49.1372C163.8 49.1409 164.241 49.1427 164.68 49.1427C166.277 49.1427 167.858 49.1154 169.396 49.0607C169.776 49.048 170.163 49.028 170.536 49.0079C171.087 48.9788 171.659 48.9497 172.219 48.9406C173.163 48.9242 174.006 48.8823 174.774 48.5418C175.437 48.2468 176.326 47.7406 176.387 46.7556C176.425 46.131 176.139 45.4664 175.602 44.9329Z" fill="#93A1ED"/>
<path d="M14.557 81.8117C13.903 81.1617 13.0158 80.874 12.2131 81.0452C12.7256 80.4643 12.799 79.5302 12.371 78.8584C11.9339 78.1737 11.0209 77.8114 10.1998 77.9971C9.52568 78.1482 8.95808 78.598 8.66233 79.1897C8.73214 78.7091 8.72663 78.1191 8.49334 77.5437C8.20862 76.8445 7.61897 76.322 6.95401 76.1799C6.1421 76.007 5.19609 76.4221 4.6542 77.1887C4.30703 77.6803 4.07374 78.3121 3.98924 78.9658C3.86066 78.516 3.55757 78.1027 3.14243 77.8551C2.52523 77.4873 1.69127 77.4764 1.01529 77.826C0.385232 78.1519 -0.107058 78.7819 -0.303607 79.5139C-0.472603 80.1402 -0.432191 80.8248 -0.187882 81.5022C-0.772018 81.0051 -1.38738 80.5262 -2.21032 80.6719C-2.76139 80.7684 -3.21694 81.1053 -3.46125 81.5951C-3.70188 82.0812 -3.69454 82.6402 -3.43737 83.1282C-3.00386 83.953 -2.11663 84.4683 -0.724259 84.7014C0.23828 84.8634 1.23021 84.8725 2.18907 84.8834C2.36725 84.8853 2.54544 84.8871 2.72178 84.8889C2.86322 84.8907 2.98629 84.8944 3.10018 84.898C3.88638 84.9217 4.67257 84.9381 5.43673 84.9454C5.76553 84.949 6.0925 84.9508 6.41947 84.9508C7.60795 84.9508 8.78541 84.9308 9.93164 84.8889C10.2145 84.878 10.5029 84.8634 10.7821 84.8489C11.1936 84.827 11.6179 84.8052 12.0349 84.7979C12.7384 84.7851 13.3667 84.756 13.9379 84.5011C14.4321 84.2808 15.0952 83.9038 15.1393 83.1719C15.1687 82.7057 14.9556 82.2105 14.557 81.8117Z" fill="#93A1ED"/>
<path d="M175.852 90.5678C175.224 89.9433 174.371 89.6665 173.6 89.8322C174.092 89.2751 174.164 88.3774 173.751 87.731C173.332 87.0737 172.454 86.7259 171.666 86.9025C171.017 87.0482 170.473 87.4797 170.189 88.0478C170.255 87.5853 170.251 87.0191 170.025 86.4674C169.753 85.7955 169.186 85.2948 168.547 85.1582C167.768 84.9925 166.858 85.3894 166.339 86.1269C166.004 86.6003 165.782 87.2048 165.699 87.833C165.576 87.4014 165.286 87.0027 164.887 86.766C164.296 86.4127 163.493 86.4018 162.845 86.7368C162.24 87.05 161.767 87.6564 161.579 88.3574C161.418 88.9601 161.456 89.6174 161.689 90.2674C161.127 89.7904 160.538 89.3315 159.748 89.4699C159.219 89.5628 158.78 89.885 158.546 90.3566C158.315 90.8246 158.322 91.3599 158.57 91.8297C158.987 92.6217 159.84 93.117 161.177 93.341C162.101 93.4957 163.054 93.5067 163.974 93.5158C164.145 93.5176 164.316 93.5194 164.487 93.5212C164.623 93.523 164.74 93.5267 164.851 93.5285C165.606 93.5522 166.361 93.5667 167.095 93.574C167.411 93.5777 167.725 93.5777 168.04 93.5777C169.182 93.5777 170.312 93.5576 171.412 93.5194C171.684 93.5103 171.961 93.4957 172.23 93.4812C172.624 93.4611 173.032 93.4393 173.433 93.4338C174.109 93.4229 174.711 93.3919 175.26 93.148C175.734 92.9367 176.372 92.5744 176.414 91.8697C176.442 91.4255 176.236 90.952 175.852 90.5678Z" fill="#93A1ED"/>
<path d="M17.3363 43.7948C16.6695 43.132 15.7639 42.8389 14.9446 43.0137C15.4663 42.4219 15.5434 41.4678 15.1063 40.7832C14.6617 40.0858 13.7286 39.7162 12.891 39.9037C12.204 40.0585 11.6253 40.5173 11.3222 41.12C11.392 40.6284 11.3884 40.0275 11.1496 39.4412C10.8593 38.7293 10.2587 38.1958 9.57901 38.0501C8.75057 37.8735 7.78619 38.2959 7.23328 39.0789C6.87876 39.5814 6.6418 40.2242 6.55547 40.8906C6.42505 40.4317 6.11645 40.0093 5.69212 39.7562C5.0639 39.3811 4.21157 39.3684 3.52273 39.7253C2.88165 40.0566 2.37834 40.7012 2.17812 41.4478C2.00729 42.0869 2.0477 42.7861 2.29568 43.4761C1.69869 42.9681 1.0723 42.482 0.232834 42.6295C-0.329259 42.7278 -0.793997 43.0719 -1.04198 43.5708C-1.28812 44.0661 -1.27894 44.6378 -1.01626 45.1349C-0.573568 45.9761 0.332027 46.5005 1.75196 46.7409C2.7347 46.9066 3.745 46.9157 4.72223 46.9266C4.90409 46.9284 5.0841 46.9302 5.26596 46.932C5.40924 46.9339 5.53598 46.9375 5.65354 46.9412C6.45444 46.9666 7.25716 46.9812 8.03785 46.9903C8.37217 46.994 8.70648 46.9958 9.0408 46.9958C10.2532 46.9958 11.4545 46.9739 12.6228 46.9339C12.9112 46.9229 13.2051 46.9084 13.4898 46.8938C13.9086 46.872 14.3421 46.8501 14.7683 46.8428C15.4847 46.8301 16.1276 46.7991 16.7099 46.5406C17.2132 46.3166 17.8892 45.9324 17.9351 45.1841C17.9627 44.7052 17.7441 44.2008 17.3363 43.7948Z" fill="#93A1ED"/>
<path d="M37.658 125.672C36.2693 124.288 34.3809 123.678 32.6726 124.042C33.7601 122.809 33.9199 120.819 33.0088 119.39C32.0811 117.935 30.1377 117.165 28.3908 117.556C26.9562 117.878 25.7511 118.834 25.1211 120.093C25.268 119.069 25.257 117.817 24.761 116.593C24.1567 115.107 22.9021 113.996 21.4858 113.694C19.7591 113.326 17.7496 114.208 16.596 115.839C15.8557 116.886 15.3634 118.226 15.1816 119.617C14.9079 118.66 14.265 117.78 13.3814 117.254C12.0699 116.471 10.2936 116.447 8.85711 117.19C7.51984 117.882 6.47097 119.224 6.05399 120.781C5.69579 122.115 5.78213 123.57 6.2983 125.009C5.05471 123.951 3.74867 122.935 1.9981 123.243C0.824314 123.448 -0.143736 124.164 -0.659907 125.204C-1.17424 126.238 -1.15403 127.427 -0.608473 128.467C0.313654 130.22 2.20199 131.314 5.16309 131.813C7.21124 132.157 9.31817 132.179 11.3571 132.199C11.7355 132.203 12.1139 132.206 12.4905 132.212C12.7899 132.216 13.0526 132.223 13.2969 132.23C14.9667 132.281 16.6401 132.316 18.2676 132.33C18.9656 132.338 19.6636 132.339 20.358 132.339C22.8874 132.339 25.3911 132.296 27.8268 132.208C28.4293 132.186 29.0429 132.155 29.6344 132.125C30.5087 132.079 31.4125 132.033 32.2997 132.017C33.795 131.992 35.1322 131.926 36.3483 131.385C37.399 130.917 38.8079 130.116 38.9016 128.558C38.9622 127.571 38.5085 126.52 37.658 125.672Z" fill="#93A1ED"/>
<path d="M32.127 10.0624C30.8889 8.82966 29.2081 8.28524 27.6853 8.60934C28.6552 7.50957 28.7967 5.73791 27.9847 4.46516C27.1581 3.16874 25.4259 2.48229 23.8701 2.83189C22.5916 3.11958 21.517 3.9699 20.9567 5.09152C21.0872 4.1793 21.078 3.06313 20.6353 1.97246C20.0971 0.648731 18.9784 -0.341794 17.7164 -0.609454C16.1789 -0.937201 14.3861 -0.152429 13.3593 1.3024C12.6998 2.23466 12.2608 3.42912 12.0992 4.66727C11.8549 3.81513 11.2818 3.03036 10.4956 2.56241C9.32728 1.86504 7.74387 1.84319 6.46354 2.50596C5.27139 3.12322 4.33824 4.3195 3.96535 5.70514C3.64757 6.89413 3.72288 8.19056 4.18394 9.47241C3.07629 8.52923 1.91169 7.62428 0.352155 7.89922C-0.693045 8.08313 -1.55639 8.72041 -2.01562 9.64721C-2.47301 10.5685 -2.45647 11.6283 -1.96969 12.5532C-1.14676 14.1155 0.53401 15.0915 3.17181 15.5357C4.99586 15.8434 6.87501 15.8617 8.68987 15.8799C9.02603 15.8835 9.36402 15.8871 9.70017 15.8908C9.96653 15.8944 10.2016 15.8999 10.4184 15.9072C11.9063 15.9527 13.396 15.9837 14.8472 15.9964C15.4699 16.0019 16.0908 16.0055 16.7098 16.0055C18.9619 16.0055 21.1937 15.9673 23.3649 15.889C23.9013 15.8689 24.4487 15.8416 24.9759 15.8143C25.7547 15.7743 26.5593 15.7324 27.351 15.7196C28.6828 15.696 29.8749 15.6377 30.9587 15.157C31.8955 14.74 33.1501 14.0263 33.2346 12.637C33.2897 11.7539 32.8856 10.8162 32.127 10.0624Z" fill="#93A1ED"/>
<path d="M133.884 73.7365C130.001 69.8691 124.726 68.163 119.95 69.1808C122.991 65.734 123.434 60.1732 120.886 56.1802C118.291 52.1143 112.863 49.9585 107.978 51.0582C103.97 51.9595 100.6 54.6307 98.8398 58.1449C99.2494 55.2862 99.2219 51.7829 97.8314 48.3634C96.1432 44.2101 92.6366 41.1057 88.6762 40.2626C83.8507 39.2339 78.2316 41.6992 75.0115 46.2567C72.9431 49.1828 71.5636 52.93 71.0603 56.8138C70.2961 54.1391 68.4978 51.681 66.0308 50.2097C62.3644 48.0229 57.401 47.9537 53.3856 50.0331C49.6456 51.9686 46.7176 55.7195 45.5512 60.0658C44.5519 63.7948 44.7888 67.8626 46.2345 71.8811C42.7591 68.9241 39.1091 66.0854 34.2156 66.9449C30.9367 67.5202 28.2291 69.5195 26.7853 72.4273C25.3507 75.3188 25.404 78.6418 26.9323 81.5442C29.5113 86.4458 34.7869 89.5048 43.0603 90.8977C48.7823 91.8609 54.6732 91.9192 60.3713 91.9756C61.4275 91.9865 62.4856 91.9975 63.54 92.012C64.3758 92.0248 65.1124 92.0412 65.7939 92.0612C70.4633 92.205 75.1364 92.2997 79.6846 92.3434C81.6372 92.3616 83.5861 92.3707 85.5296 92.3707C92.5962 92.3707 99.5966 92.2487 106.406 92.0047C108.09 91.9447 109.802 91.8573 111.459 91.7717C113.902 91.6461 116.428 91.5168 118.91 91.4731C123.089 91.4021 126.827 91.2182 130.225 89.7069C133.162 88.3995 137.099 86.1581 137.362 81.8009C137.531 79.0442 136.263 76.1036 133.884 73.7365Z" fill="#74C7E5"/>
<path d="M72.7045 66.9432C72.35 66.9832 72.0965 67.3019 72.1369 67.6515C72.2637 68.7458 71.7016 69.9275 70.7666 70.5247C69.8334 71.1219 68.5145 71.1438 67.5612 70.5775C66.6078 70.0112 66.0053 68.8496 66.0972 67.7516C66.1266 67.4002 65.862 67.0906 65.5075 67.0615C65.1493 67.0306 64.8407 67.2946 64.8113 67.646C64.7507 68.3689 64.894 69.0972 65.1952 69.7545C64.8848 70.2079 64.4807 70.5994 64.0141 70.8871C63.9131 70.949 63.8819 71.0801 63.9443 71.1802C63.9847 71.2458 64.0545 71.2803 64.128 71.2803C64.1666 71.2803 64.207 71.2694 64.2419 71.2476C64.6938 70.969 65.0942 70.6012 65.4175 70.1788C65.7371 70.7159 66.1725 71.1857 66.6923 71.5407C66.5068 71.9431 66.1982 72.2927 65.8106 72.5112C65.7077 72.5695 65.671 72.6988 65.7298 72.8026C65.7684 72.8717 65.8418 72.91 65.9171 72.91C65.9539 72.91 65.9888 72.9009 66.0237 72.8827C66.4756 72.6296 66.8374 72.229 67.0634 71.7647C67.6934 72.1015 68.4062 72.2709 69.1207 72.2709C69.9455 72.2709 70.7721 72.0469 71.4683 71.6008C72.8202 70.7359 73.6046 69.0917 73.4209 67.5058C73.3805 67.1544 73.059 66.9031 72.7045 66.9432Z" fill="#231F20"/>
<path d="M100.021 70.8871C99.5541 70.5994 99.1499 70.2079 98.8395 69.7545C99.1408 69.0972 99.284 68.3689 99.2234 67.6478C99.194 67.2964 98.8873 67.036 98.5272 67.0615C98.1727 67.0906 97.9082 67.3984 97.9376 67.7516C98.0276 68.8496 97.4251 70.0112 96.4736 70.5775C95.5202 71.1438 94.2031 71.1219 93.2682 70.5247C92.335 69.9275 91.7711 68.7458 91.8978 67.6515C91.9382 67.3 91.6847 66.9832 91.3302 66.9432C90.9775 66.9031 90.6561 67.1544 90.6157 67.5058C90.432 69.0899 91.2163 70.7359 92.5683 71.6008C93.2663 72.0469 94.0911 72.2709 94.9159 72.2709C95.6304 72.2709 96.3413 72.1015 96.9732 71.7647C97.1991 72.229 97.561 72.6296 98.0129 72.8827C98.046 72.9009 98.0827 72.91 98.1194 72.91C98.1948 72.91 98.2682 72.8717 98.3068 72.8026C98.3656 72.7006 98.3288 72.5695 98.226 72.5112C97.8384 72.2945 97.5298 71.9449 97.3443 71.5407C97.8641 71.1875 98.2995 70.7177 98.6191 70.1788C98.9424 70.603 99.3428 70.969 99.7965 71.2476C99.8314 71.2694 99.8719 71.2803 99.9104 71.2803C99.9821 71.2803 100.052 71.2439 100.094 71.1802C100.151 71.0819 100.122 70.9508 100.021 70.8871Z" fill="#231F20"/>
<path d="M76.8669 82.0884C76.1872 81.3328 74.9896 81.0779 74.0215 81.4857C73.0223 81.9045 72.3959 82.9715 72.5649 83.9675C72.7504 85.0618 73.825 85.6554 74.8096 85.7574C74.9235 85.7683 75.0337 85.7756 75.1439 85.7756C75.9264 85.7756 76.6079 85.4806 77.0102 84.9544C77.6366 84.135 77.5741 82.8768 76.8669 82.0884Z" fill="#91D9F2"/>
<path d="M68.1121 75.1767C67.0356 74.5413 65.5055 74.4939 64.2931 74.5103C62.9302 74.5285 61.4037 74.7124 60.1509 75.2732C59.2067 75.6957 58.6685 76.6206 59.1333 77.6184C59.6531 78.7364 61.0988 79.0824 62.2156 79.2189C64.0378 79.4411 67.9302 79.5612 68.9019 77.5929C69.3502 76.6807 68.9754 75.6866 68.1121 75.1767Z" fill="#57B6DC"/>
<path d="M106.107 75.1767C105.03 74.5413 103.5 74.4939 102.288 74.5103C100.925 74.5285 99.3983 74.7124 98.1456 75.2732C97.2014 75.6957 96.6632 76.6206 97.1279 77.6184C97.6478 78.7364 99.0934 79.0824 100.21 79.2189C102.032 79.4411 105.925 79.5612 106.897 77.5929C107.343 76.6807 106.97 75.6866 106.107 75.1767Z" fill="#57B6DC"/>
<path d="M31.0101 69.6197C28.6423 70.6011 27.0957 73.2431 27.4116 75.7668C27.7276 78.2904 29.8786 80.4791 32.4153 80.856C32.4741 80.8651 32.5329 80.8687 32.5935 80.8687C33.174 80.8687 33.6755 80.439 33.7618 79.8709C33.8096 79.5614 33.7306 79.2518 33.5432 78.9987C33.3558 78.7475 33.0803 78.5818 32.768 78.5363C31.2434 78.3086 29.9502 76.994 29.7592 75.4773C29.57 73.9605 30.4995 72.371 31.9212 71.7828C33.3448 71.1929 35.1376 71.6536 36.0928 72.8535C36.2894 73.0993 36.5704 73.2541 36.8827 73.2905C37.1968 73.3269 37.5054 73.2395 37.7534 73.0465C38.0014 72.8517 38.1575 72.5731 38.1961 72.2635C38.2347 71.954 38.1447 71.6463 37.9499 71.4005C36.361 69.403 33.376 68.6383 31.0101 69.6197Z" fill="#57B6DC"/>
<path d="M55.7643 50.4775C52.5883 51.0219 49.6823 53.3179 48.1779 56.4698C46.8847 59.181 46.5761 62.5295 47.309 65.8962C47.4266 66.4315 47.9115 66.8211 48.4644 66.8211C48.5489 66.8211 48.6334 66.812 48.7143 66.7938C49.0229 66.7283 49.2874 66.5462 49.4582 66.2822C49.629 66.0181 49.6878 65.705 49.6198 65.3991C48.9953 62.5331 49.2414 59.7181 50.3142 57.4694C51.4935 54.9967 53.7364 53.2014 56.1629 52.7845C58.6905 52.3529 61.4165 53.5856 62.5057 55.6541C62.6527 55.9326 62.8988 56.1366 63.2001 56.2313C63.5013 56.3259 63.8228 56.2968 64.102 56.153C64.6806 55.8543 64.9066 55.1442 64.6035 54.5707C63.0384 51.5918 59.3187 49.8693 55.7643 50.4775Z" fill="#57B6DC"/>
<path d="M92.1954 46.3096C91.2384 43.3162 87.9448 41.1476 84.5355 41.2714C81.5634 41.377 78.6133 43.0467 76.6405 45.7379C75.0663 47.8864 74.0725 50.6668 73.6886 54.0026C73.6151 54.6453 74.0817 55.228 74.7319 55.3008C74.7779 55.3063 74.822 55.3081 74.866 55.3081C75.4667 55.3081 75.9719 54.862 76.0398 54.2684C76.3778 51.3405 77.2246 48.9334 78.5564 47.1144C80.1031 45.0023 82.3698 43.6931 84.62 43.6148C87.0062 43.5292 89.2931 44.9932 89.9397 47.0161C90.0352 47.3147 90.2428 47.5605 90.5238 47.7044C90.8049 47.8482 91.1245 47.8755 91.4239 47.7808C92.0466 47.586 92.392 46.9269 92.1954 46.3096Z" fill="#57B6DC"/>
<path d="M120.888 56.1802C123.436 60.1733 122.991 65.7322 119.951 69.1809C121.389 68.875 122.872 68.8167 124.347 68.9879C130.951 63.8386 135.337 55.8488 136.147 47.3966C137.044 38.054 134.27 28.3181 128.906 21.9889C123.439 15.5378 115.974 11.6521 106.718 10.4395C101.329 9.733 94.938 10.576 90.4357 12.5826C85.9224 14.5946 81.8573 18.2781 78.9918 22.954C76.4807 27.0508 74.7816 31.9725 73.944 37.5788C73.9293 37.6753 73.9825 37.7681 74.0725 37.8064C74.1625 37.8446 74.2672 37.8155 74.3279 37.739C76.275 35.2008 79.6586 33.3217 83.8577 32.444C87.9595 31.5883 92.1128 31.9033 95.5552 33.3326C99.3392 34.9022 102.385 37.9302 103.706 41.4316C105.131 45.2134 104.519 49.5707 102.146 52.5313C102.102 52.5878 102.087 52.6624 102.109 52.7298C102.131 52.7971 102.186 52.85 102.256 52.87C102.609 52.9683 102.94 53.043 103.263 53.114C104.668 52.1526 106.264 51.4406 107.98 51.0546C112.862 49.9603 118.292 52.1143 120.888 56.1802Z" fill="#F5C371"/>
<path d="M108.241 29.8038C108.09 29.0627 107.778 28.3781 107.499 27.7954C107.345 27.4768 106.961 27.3402 106.639 27.4932C106.318 27.6461 106.182 28.0267 106.334 28.3453C106.582 28.8588 106.856 29.4578 106.977 30.0551C107.06 30.4666 107.108 31.0692 106.856 31.6064C106.54 32.2819 105.757 32.7517 104.909 32.7754C104.113 32.799 103.248 32.4476 102.545 31.814C102.28 31.5754 101.872 31.5955 101.634 31.8558C101.393 32.118 101.413 32.5223 101.676 32.759C102.593 33.5856 103.739 34.0536 104.837 34.0536C104.872 34.0536 104.909 34.0536 104.944 34.0517C106.27 34.0153 107.508 33.2469 108.026 32.1417C108.34 31.4717 108.414 30.6632 108.241 29.8038Z" fill="#231F20"/>
<path d="M86.8572 22.5933C84.9468 21.9487 82.726 23.9207 83.0218 25.8708C83.1393 26.6392 83.571 27.4185 84.1625 27.9283C85.2756 28.886 87.1125 28.3016 88.0291 27.3547C89.3976 25.94 88.7217 23.2233 86.8572 22.5933Z" fill="#FFEAA3"/>
<path d="M99.8184 26.6139C99.1332 25.0261 97.4763 24.4799 95.9683 25.2082C95.1141 25.6215 94.2985 26.3844 94.1993 27.3658C94.0285 29.0629 95.3749 31.084 97.2835 30.474C98.7916 29.9896 100.544 28.2926 99.8184 26.6139Z" fill="#FFEAA3"/>
<path d="M107.018 14.1977C106.735 14.0047 106.426 13.8481 106.106 13.737C104.745 13.2636 103.261 13.5349 102.324 14.651C100.486 16.8433 102.025 20.5432 105.118 19.8659C106.397 19.5855 107.929 18.8098 108.351 17.4806C108.768 16.1714 108.077 14.9242 107.018 14.1977Z" fill="#FFEAA3"/>
<path d="M128.142 24.4379C127.89 23.7169 127.266 23.167 126.553 22.9121C124.867 22.3076 123.157 23.4092 122.707 25.0679C122.426 26.104 122.749 27.3494 123.783 27.8665C125.017 28.4838 126.478 27.8101 127.369 26.9033C128.035 26.2278 128.475 25.392 128.142 24.4379Z" fill="#FFEAA3"/>
<path d="M129.815 34.5672C127.436 34.4853 125.227 36.2496 125.418 38.7168C125.419 38.7405 125.425 38.7624 125.43 38.786C125.43 39.0846 125.493 39.3905 125.643 39.7001C126.106 40.6542 127.049 41.3989 128.028 41.7795C130.208 42.6316 132.648 41.825 133.013 39.3742C133.353 37.0963 132.444 34.6564 129.815 34.5672Z" fill="#FFEAA3"/>
<path d="M115.842 43.4889C114.55 43.3268 113.298 44.4648 112.745 45.53C112.201 46.577 112.532 47.8588 113.435 48.5981C114.843 49.7507 116.997 49.0843 117.817 47.7004C118.889 46.3184 117.888 43.7438 115.842 43.4889Z" fill="#FFEAA3"/>
<path d="M129.804 52.4804C128.82 50.9291 127.003 50.9363 125.614 52.0088C124.566 52.8191 123.884 54.243 124.391 55.5339C124.867 56.7484 126.173 57.4057 127.437 57.4349C130.212 57.4986 131.094 54.5124 129.804 52.4804Z" fill="#FFEAA3"/>
<path d="M116.43 28.4581C114.136 28.5491 112.582 30.5829 111.419 32.3528C111.12 32.7333 110.901 33.1667 110.855 33.6711C110.776 34.5305 111.239 35.3298 112.051 35.6539C113.873 36.3823 116.125 34.2665 117.062 32.9373C117.868 31.792 118.871 28.3615 116.43 28.4581Z" fill="#FFEAA3"/>
<path d="M98.2942 13.4656C98.0958 12.7464 97.1811 12.5789 96.6539 12.5443C88.656 12.0144 81.4186 19.5326 78.0809 26.743C77.5353 27.9229 77.1459 29.1083 76.9273 30.27L76.9145 30.3355C76.7804 31.0383 76.6297 31.8359 76.5746 32.5441C76.5526 32.8246 76.6114 33.094 76.74 33.3034C76.7914 33.3872 76.8538 33.4618 76.9255 33.5219C77.0706 33.6457 77.2304 33.7077 77.4049 33.7077C77.4527 33.7077 77.5004 33.7022 77.55 33.6931C78.1727 33.5747 78.7716 32.7226 79.0012 32.2892C79.4567 31.428 79.78 30.4939 80.0923 29.5926C80.2136 29.243 80.3348 28.8934 80.4634 28.5475C81.8521 24.8111 83.9737 21.7649 86.7695 19.4944C89.3007 17.4386 92.4308 16.2606 95.436 15.2937C95.5352 15.261 95.6785 15.2245 95.8475 15.1808C96.6006 14.9842 97.8607 14.6528 98.2226 14.0337C98.3236 13.8553 98.3493 13.6641 98.2942 13.4656Z" fill="#FFF4D1"/>
<path d="M100.601 11.7304C100.28 11.5446 99.8995 11.5574 99.5596 11.6848C99.3723 11.7559 99.2143 11.8505 99.1096 12.029C98.7 12.7245 99.7084 13.6714 100.405 13.502C100.744 13.4201 101.022 13.1579 101.104 12.8192C101.213 12.3822 100.98 11.9489 100.601 11.7304Z" fill="#FFF4D1"/>
<path d="M136.225 46.4643C136.245 46.162 136.263 45.8579 136.276 45.5557C136.115 45.725 135.979 45.9344 135.885 46.1911C134.366 50.277 132.029 54.0735 129.035 57.2617C127.746 58.6346 126.35 59.8873 124.891 61.069C125.124 60.8797 124.197 58.6783 124.066 58.3651C123.679 57.4347 123.192 56.5443 122.619 55.7104C121.493 54.0735 120.034 52.6587 118.35 51.5917C114.825 49.3575 110.743 48.9606 106.807 50.2607C105.76 50.6066 104.808 51.0709 103.941 51.7701C103.48 51.8211 103.023 51.8848 102.571 51.9613C102.437 52.158 102.293 52.3491 102.145 52.5349C102.101 52.5913 102.086 52.666 102.108 52.7333C102.13 52.8007 102.185 52.8535 102.255 52.8735C102.608 52.9719 102.938 53.0465 103.261 53.1175C104.667 52.1561 106.263 51.4442 107.979 51.0582C112.863 49.9602 118.291 52.1143 120.887 56.1801C123.021 59.525 123.054 63.9696 121.221 67.3527C121.221 67.3527 121.221 67.3545 121.219 67.3545C121.151 67.4783 121.081 67.6003 121.01 67.7223C121.004 67.7296 121 67.7387 120.995 67.746C120.927 67.8589 120.857 67.9681 120.786 68.0774C120.775 68.0938 120.765 68.1101 120.754 68.1247C120.688 68.2249 120.618 68.325 120.547 68.4233C120.53 68.4452 120.516 68.4688 120.499 68.4907C120.431 68.5854 120.359 68.6764 120.288 68.7675C120.268 68.7929 120.249 68.8184 120.231 68.8421C120.139 68.9568 120.045 69.0697 119.948 69.179C121.386 68.8731 122.869 68.8148 124.344 68.986C130.947 63.8367 135.334 55.8469 136.144 47.3947C136.173 47.0888 136.199 46.7829 136.219 46.477C136.225 46.4734 136.225 46.4679 136.225 46.4643Z" fill="#EBCE72"/>
<path d="M38.8482 40.8471C38.7233 40.6286 38.4422 40.5521 38.2218 40.6759L32.5329 43.8769L36.429 36.7084C36.519 36.5408 36.4969 36.3369 36.3702 36.1931C36.2453 36.051 36.0432 36.0001 35.8632 36.0656C33.2805 37.0234 30.797 38.2615 28.4843 39.7473C28.2713 39.8839 28.2106 40.1661 28.3484 40.3773C28.4862 40.5885 28.7709 40.6486 28.984 40.512C30.8944 39.2866 32.9223 38.2324 35.0256 37.3711L30.966 44.8383C30.8686 45.0167 30.9035 45.2371 31.0487 45.3791C31.1368 45.4647 31.2526 45.5084 31.3701 45.5084C31.4473 45.5084 31.5263 45.4883 31.5961 45.4483L38.6737 41.4643C38.8959 41.3423 38.9731 41.0656 38.8482 40.8471Z" fill="#F7E9BC"/>
<path d="M44.0411 53.1593C43.9419 52.9281 43.6719 52.8207 43.4386 52.919C42.2428 53.4234 41.0047 53.844 39.7446 54.1753C40.8559 52.4765 41.7707 50.6557 42.4724 48.753C42.5312 48.5927 42.4944 48.4125 42.3787 48.2868C42.2612 48.1612 42.083 48.112 41.9177 48.1575C39.785 48.7511 37.746 49.6324 35.8559 50.7777C35.6391 50.9088 35.5711 51.1892 35.7034 51.4041C35.8357 51.6189 36.1185 51.6863 36.3353 51.5552C37.8875 50.6138 39.5462 49.8582 41.2766 49.301C40.5051 51.1837 39.515 52.9718 38.3247 54.6287C38.2145 54.7817 38.2108 54.9874 38.3155 55.144C38.4018 55.2733 38.5469 55.348 38.6994 55.348C38.7325 55.348 38.7655 55.3443 38.7968 55.337C40.5069 54.9674 42.1895 54.4339 43.8005 53.7547C44.0319 53.6582 44.1403 53.3906 44.0411 53.1593Z" fill="#F7E9BC"/>
<path d="M33.9326 30.2042C33.8187 29.9802 33.5413 29.8892 33.3154 30.0021L23.9398 34.6925C25.6977 31.0527 27.8157 27.5767 30.2496 24.3448C30.3672 24.1882 30.3708 23.9733 30.2588 23.8131C30.1467 23.6529 29.9428 23.58 29.7536 23.6347C26.5941 24.5433 23.6331 25.9617 20.953 27.8535C20.7473 27.9992 20.6977 28.2832 20.8446 28.489C20.9916 28.6929 21.2781 28.7421 21.4857 28.5964C23.7029 27.0305 26.1202 25.7978 28.6864 24.9238C26.3021 28.2413 24.2392 31.7938 22.5456 35.5009C22.4648 35.6776 22.5052 35.8833 22.6466 36.0181C22.7348 36.1018 22.8487 36.1455 22.9644 36.1455C23.0342 36.1455 23.1059 36.1291 23.172 36.0964L33.7305 30.8142C33.9546 30.7031 34.0465 30.4281 33.9326 30.2042Z" fill="#F7E9BC"/>
<path d="M49.2139 40.1753C48.4148 40.1753 48.413 41.4062 49.2139 41.4062C50.013 41.4062 50.0148 40.1753 49.2139 40.1753Z" fill="#ADB9D1"/>
<path d="M51.9696 24.8167C51.4405 24.8167 51.4405 25.6306 51.9696 25.6306C52.4986 25.6306 52.4986 24.8167 51.9696 24.8167Z" fill="#ADB9D1"/>
<path d="M70.7039 11.9363C69.4089 11.9363 69.407 13.9319 70.7039 13.9319C71.9989 13.9319 72.0026 11.9363 70.7039 11.9363Z" fill="#ADB9D1"/>
<path d="M51.6944 13.3364C51.5066 13.3364 51.5066 13.6241 51.6944 13.6241C51.8822 13.6241 51.8822 13.3364 51.6944 13.3364Z" fill="#ADB9D1"/>
<path d="M7.61017 31.0527C7.37632 31.0527 7.37632 31.4114 7.61017 31.4114C7.84402 31.4114 7.84402 31.0527 7.61017 31.0527Z" fill="#ADB9D1"/>
<path d="M20.0092 37.7681H19.7337C19.4342 37.7681 19.1495 38.0284 19.1624 38.3343C19.1771 38.6402 19.414 38.9006 19.7337 38.9006H20.0092C20.3086 38.9006 20.5933 38.6402 20.5805 38.3343C20.5658 38.0266 20.3288 37.7681 20.0092 37.7681Z" fill="#ADB9D1"/>
<path d="M7.05892 62.8445C5.90718 62.8445 5.90534 64.6198 7.05892 64.6198C8.21066 64.6198 8.2125 62.8445 7.05892 62.8445Z" fill="#ADB9D1"/>
<path d="M20.2846 70.5864C19.2541 70.5864 19.2523 72.1742 20.2846 72.1742C21.3151 72.1724 21.317 70.5864 20.2846 70.5864Z" fill="#ADB9D1"/>
<path d="M21.387 77.7678C21.1716 77.7678 21.1697 78.0992 21.387 78.0992C21.6024 78.0992 21.6024 77.7678 21.387 77.7678Z" fill="#ADB9D1"/>
<path d="M6.48739 99.5667C6.10898 99.5667 6.10898 100.149 6.48739 100.149C6.86579 100.149 6.86579 99.5667 6.48739 99.5667Z" fill="#ADB9D1"/>
<path d="M21.3668 104.064C20.2095 104.064 20.2077 105.847 21.3668 105.847C22.524 105.848 22.5259 104.064 21.3668 104.064Z" fill="#ADB9D1"/>
<path d="M40.2866 105.938C39.6694 105.938 39.6694 106.888 40.2866 106.888C40.9038 106.888 40.9038 105.938 40.2866 105.938Z" fill="#ADB9D1"/>
<path d="M57.3572 110.603C57.348 110.417 57.2874 110.226 57.1459 110.096C57.0963 110.06 57.0486 110.022 56.999 109.985C56.8869 109.92 56.7657 109.889 56.6353 109.887C56.4332 109.862 56.2073 109.978 56.0695 110.118C55.9244 110.266 55.8435 110.468 55.8435 110.675C55.8417 111.091 56.1889 111.493 56.6297 111.468C56.8208 111.457 57.0008 111.395 57.1404 111.258C57.2653 111.134 57.359 110.93 57.3516 110.752C57.3516 110.739 57.348 110.726 57.348 110.716C57.3535 110.675 57.359 110.639 57.3572 110.603Z" fill="#ADB9D1"/>
<path d="M8.32468 112.256C7.40071 112.256 7.39887 113.68 8.32468 113.68C9.24864 113.68 9.25048 112.256 8.32468 112.256Z" fill="#ADB9D1"/>
<path d="M114.498 113.711C114.106 113.729 113.777 114.024 113.777 114.424V114.606C113.777 114.98 114.108 115.338 114.498 115.32C114.889 115.302 115.218 115.007 115.218 114.606V114.424C115.218 114.051 114.887 113.692 114.498 113.711Z" fill="#ADB9D1"/>
<path d="M125.52 115.621H125.336C125.234 115.621 125.234 115.777 125.336 115.777H125.52C125.621 115.777 125.621 115.621 125.52 115.621Z" fill="#ADB9D1"/>
<path d="M170.891 121.254C169.592 121.254 169.59 123.254 170.891 123.254C172.189 123.254 172.191 121.254 170.891 121.254Z" fill="#ADB9D1"/>
<path d="M170.34 107.145C169.399 107.145 169.397 108.594 170.34 108.594C171.28 108.594 171.282 107.145 170.34 107.145Z" fill="#ADB9D1"/>
<path d="M133.418 110.899C132.859 110.899 132.858 111.761 133.418 111.761C133.976 111.759 133.978 110.899 133.418 110.899Z" fill="#ADB9D1"/>
<path d="M129.823 102.875C129.762 102.815 129.7 102.753 129.639 102.693C129.478 102.533 129.237 102.435 129.009 102.435C128.791 102.435 128.53 102.531 128.379 102.693C128.223 102.861 128.107 103.083 128.118 103.318C128.129 103.553 128.208 103.773 128.379 103.942L128.563 104.124C128.724 104.285 128.965 104.383 129.193 104.383C129.411 104.383 129.672 104.286 129.823 104.124C129.979 103.957 130.095 103.735 130.084 103.5C130.073 103.265 129.994 103.045 129.823 102.875Z" fill="#ADB9D1"/>
<path d="M162.073 101.102C161.561 101.102 161.561 101.89 162.073 101.89C162.586 101.892 162.586 101.102 162.073 101.102Z" fill="#ADB9D1"/>
<path d="M149.766 89.5247C149.353 89.5247 149.353 90.1619 149.766 90.1619C150.18 90.1619 150.18 89.5247 149.766 89.5247Z" fill="#ADB9D1"/>
<path d="M140.031 78.8694H139.847C139.785 78.8694 139.785 78.9659 139.847 78.9659H140.031C140.094 78.9677 140.094 78.8694 140.031 78.8694Z" fill="#ADB9D1"/>
<path d="M142.646 67.4037C142.481 67.2543 142.279 67.1597 142.051 67.1597H141.867C141.652 67.1597 141.425 67.2525 141.272 67.4037C141.127 67.5475 141.017 67.786 141.026 67.9936C141.035 68.2085 141.107 68.4324 141.272 68.5835C141.438 68.7329 141.64 68.8275 141.867 68.8275H142.051C142.266 68.8275 142.494 68.7347 142.646 68.5835C142.791 68.4397 142.902 68.2012 142.892 67.9936C142.881 67.7787 142.81 67.5548 142.646 67.4037Z" fill="#ADB9D1"/>
<path d="M145.099 53.9733V54.1553C145.099 54.2518 145.251 54.2518 145.251 54.1553V53.9733C145.249 53.8768 145.099 53.8768 145.099 53.9733Z" fill="#ADB9D1"/>
<path d="M158.767 80.481H158.654C157.845 80.481 157.843 81.7264 158.654 81.7264H158.767C159.576 81.7264 159.577 80.481 158.767 80.481Z" fill="#ADB9D1"/>
<path d="M151.971 63.0027C150.692 63.0027 150.688 64.9728 151.971 64.9728C153.249 64.9728 153.253 63.0027 151.971 63.0027Z" fill="#ADB9D1"/>
<path d="M167.768 54.6509C167.228 54.6509 167.228 55.483 167.768 55.483C168.308 55.4812 168.308 54.6509 167.768 54.6509Z" fill="#ADB9D1"/>
<path d="M141.132 42.335H140.949C140.717 42.335 140.475 42.4351 140.31 42.5972C140.153 42.7519 140.036 43.0068 140.045 43.2308C140.067 43.7151 140.442 44.1266 140.949 44.1266H141.132C141.364 44.1266 141.606 44.0265 141.772 43.8644C141.928 43.7097 142.045 43.4548 142.036 43.2308C142.014 42.7465 141.639 42.335 141.132 42.335Z" fill="#ADB9D1"/>
<path d="M161.339 31.2151H160.971C160.589 31.2151 160.222 31.5483 160.238 31.9416C160.257 32.3349 160.56 32.6681 160.971 32.6681H161.339C161.721 32.6681 162.088 32.3349 162.072 31.9416C162.053 31.5483 161.748 31.2151 161.339 31.2151Z" fill="#ADB9D1"/>
<path d="M172.36 34.4944C171.185 34.4944 171.183 36.3061 172.36 36.3061C173.536 36.3079 173.538 34.4944 172.36 34.4944Z" fill="#ADB9D1"/>
<path d="M172.728 25.8765C172.417 25.8765 172.417 26.3535 172.728 26.3535C173.038 26.3535 173.038 25.8765 172.728 25.8765Z" fill="#ADB9D1"/>
<path d="M166.436 3.03598C166.267 2.86846 165.99 2.74283 165.747 2.75193C165.496 2.76285 165.233 2.84479 165.058 3.03598C164.884 3.22534 164.772 3.45841 164.772 3.71879V3.90087C164.772 4.1485 164.88 4.40888 165.058 4.58367C165.227 4.75119 165.505 4.87683 165.747 4.86772C165.999 4.8568 166.262 4.77486 166.436 4.58367C166.611 4.39431 166.723 4.16124 166.723 3.90087V3.71879C166.723 3.47115 166.614 3.21078 166.436 3.03598Z" fill="#ADB9D1"/>
<path d="M154.289 0.28833H154.175C152.795 0.28833 152.792 2.41504 154.175 2.41504H154.289C155.668 2.41504 155.672 0.28833 154.289 0.28833Z" fill="#ADB9D1"/>
<path d="M127.724 8.70044C126.392 8.70044 126.388 10.7525 127.724 10.7525C129.056 10.7543 129.059 8.70044 127.724 8.70044Z" fill="#ADB9D1"/>
<path d="M105.864 1.69043C105.122 1.69043 105.12 2.8339 105.864 2.8339C106.606 2.8339 106.608 1.69043 105.864 1.69043Z" fill="#ADB9D1"/>
<path d="M75.7391 0.696289C74.6517 0.696289 74.6498 2.37144 75.7391 2.37144C76.8266 2.37144 76.8284 0.696289 75.7391 0.696289Z" fill="#ADB9D1"/>
<path d="M65.0848 39.6272C64.6605 39.6272 64.6605 40.279 65.0848 40.279C65.5092 40.279 65.5092 39.6272 65.0848 39.6272Z" fill="#ADB9D1"/>
<path d="M37.0906 22.7627C37.0851 22.7627 37.0851 22.7699 37.0906 22.7699C37.096 22.7699 37.096 22.7627 37.0906 22.7627Z" fill="#515763"/>
<path d="M58.3104 2.27835L58.0349 2.00523C57.8879 1.85956 57.6197 1.84864 57.4746 2.00523C57.3295 2.16182 57.3185 2.40581 57.4746 2.56058C57.5665 2.65162 57.6583 2.74266 57.7501 2.8337C57.8971 2.97937 58.1653 2.99029 58.3104 2.8337C58.4555 2.67711 58.4684 2.43312 58.3104 2.27835Z" fill="#515763"/>
<path d="M2.65053 21.1528H2.37499C2.09946 21.1528 1.83678 21.3932 1.84964 21.6736C1.86249 21.9558 2.08109 22.1943 2.37499 22.1943H2.65053C2.92606 22.1943 3.18874 21.954 3.17588 21.6736C3.16302 21.3914 2.94627 21.1528 2.65053 21.1528Z" fill="#515763"/>
<path d="M14.2227 52.6201C13.2712 52.6201 13.2694 54.0877 14.2227 54.0877C15.1743 54.0877 15.1761 52.6201 14.2227 52.6201Z" fill="#515763"/>
<path d="M0.501119 89.4463H0.425805C-0.560613 89.4463 -0.56245 90.9667 0.425805 90.9667H0.501119C1.48937 90.9685 1.49121 89.4463 0.501119 89.4463Z" fill="#515763"/>
<path d="M46.532 121.165H46.3483C46.1573 121.165 45.9754 121.331 45.9846 121.526C45.9938 121.722 46.1444 121.886 46.3483 121.886H46.532C46.7231 121.886 46.9049 121.72 46.8957 121.526C46.8884 121.329 46.7359 121.165 46.532 121.165Z" fill="#515763"/>
<path d="M145.174 118.587C145.141 118.587 145.141 118.635 145.174 118.635C145.208 118.637 145.208 118.587 145.174 118.587Z" fill="#515763"/>
<path d="M158.4 110.329C157.575 110.329 157.573 111.598 158.4 111.598C159.224 111.6 159.226 110.329 158.4 110.329Z" fill="#515763"/>
<path d="M173.646 78.6853C172.869 78.6853 172.869 79.8816 173.646 79.8816C174.423 79.8798 174.423 78.6853 173.646 78.6853Z" fill="#515763"/>
<path d="M158.216 53.7056C157.871 53.7201 157.579 53.9823 157.579 54.3374V54.5195C157.579 54.849 157.871 55.1659 158.216 55.1513C158.561 55.1367 158.853 54.8745 158.853 54.5195V54.3374C158.853 54.0078 158.559 53.691 158.216 53.7056Z" fill="#515763"/>
<path d="M140.582 24.4578C140.322 24.4578 140.322 24.8565 140.582 24.8565C140.842 24.8583 140.842 24.4578 140.582 24.4578Z" fill="#515763"/>
<path d="M174.381 7.32568C174.336 7.32568 174.336 7.3927 174.381 7.3927C174.426 7.39451 174.426 7.32568 174.381 7.32568Z" fill="#515763"/>
<path d="M111.926 7.16919C111.914 7.16919 111.914 7.18833 111.926 7.18833C111.938 7.18659 111.938 7.16919 111.926 7.16919Z" fill="#515763"/>
<path d="M98.7006 5.98729C98.3479 6.00368 98.0503 6.26952 98.0503 6.63186V6.81394C98.0503 7.15079 98.3497 7.47308 98.7006 7.45851C99.0533 7.44212 99.3508 7.17629 99.3508 6.81394V6.63186C99.3508 6.29501 99.0514 5.97273 98.7006 5.98729Z" fill="#515763"/>
<path d="M66.5728 25.0879C65.3311 25.0879 65.3292 26.9997 66.5728 26.9997C67.8127 26.9997 67.8164 25.0879 66.5728 25.0879Z" fill="#F2E3B5"/>
<path d="M39.2064 22.0343C39.0246 21.854 38.7288 21.7193 38.468 21.732C38.198 21.7448 37.9187 21.8322 37.7295 22.0343C37.5422 22.2364 37.4246 22.4859 37.4246 22.7663V23.0394C37.4246 23.3052 37.5403 23.5838 37.7295 23.7714C37.9114 23.9516 38.2071 24.0864 38.468 24.0736C38.738 24.0609 39.0172 23.9735 39.2064 23.7714C39.3938 23.5692 39.5113 23.3198 39.5113 23.0394V22.7663C39.5113 22.5004 39.3956 22.2218 39.2064 22.0343Z" fill="#F2E3B5"/>
<path d="M39.0195 7.84839C38.8004 7.84839 38.7985 8.18706 39.0195 8.18706C39.2404 8.18706 39.2404 7.84839 39.0195 7.84839Z" fill="#F2E3B5"/>
<path d="M19.1823 19.5925H18.9067C18.6735 19.5925 18.4512 19.7965 18.4622 20.0332C18.4732 20.2717 18.6588 20.4756 18.9067 20.4756H19.1823C19.4156 20.4756 19.6378 20.2717 19.6268 20.0332C19.6158 19.7965 19.4321 19.5925 19.1823 19.5925Z" fill="#F2E3B5"/>
<path d="M0.721605 53.8569C-0.0443851 53.8569 -0.0462219 55.0368 0.721605 55.0368C1.48759 55.0368 1.48943 53.8569 0.721605 53.8569Z" fill="#F2E3B5"/>
<path d="M26.8975 55.1421H26.622C26.4126 55.1421 26.2105 55.3242 26.2215 55.539C26.2307 55.7539 26.3979 55.936 26.622 55.936H26.8975C27.1069 55.936 27.309 55.7539 27.298 55.539C27.2888 55.3242 27.1216 55.1421 26.8975 55.1421Z" fill="#F2E3B5"/>
<path d="M24.1418 86.9099C23.385 86.9099 23.3832 88.0753 24.1418 88.0753C24.8986 88.0753 24.9005 86.9099 24.1418 86.9099Z" fill="#F2E3B5"/>
<path d="M13.947 91.8555C13.2288 91.8555 13.227 92.9626 13.947 92.9626C14.6653 92.9626 14.6671 91.8555 13.947 91.8555Z" fill="#F2E3B5"/>
<path d="M1.65647 107.11C1.58483 106.893 1.4489 106.677 1.23765 106.569C1.08335 106.491 0.921706 106.429 0.745363 106.436C0.504729 106.447 0.253072 106.531 0.0840768 106.709C-0.105124 106.91 -0.195133 107.146 -0.204317 107.416C-0.213502 107.665 -0.0996133 107.953 0.0859141 108.122C0.412883 108.419 0.850067 108.47 1.23949 108.263C1.43788 108.157 1.59952 107.933 1.6583 107.722C1.68218 107.636 1.68769 107.54 1.68402 107.443C1.69688 107.33 1.69137 107.218 1.65647 107.11Z" fill="#F2E3B5"/>
<path d="M35.878 93.76C35.2883 93.76 35.2883 94.6668 35.878 94.6668C36.4676 94.6668 36.4676 93.76 35.878 93.76Z" fill="#F2E3B5"/>
<path d="M131.581 120.014C130.565 120.014 130.563 121.578 131.581 121.578C132.596 121.58 132.598 120.014 131.581 120.014Z" fill="#F2E3B5"/>
<path d="M145.253 120.173C145.192 120.113 145.13 120.051 145.069 119.991C144.908 119.83 144.669 119.732 144.439 119.732C144.221 119.732 143.96 119.829 143.809 119.991C143.653 120.158 143.537 120.38 143.548 120.615C143.559 120.848 143.638 121.07 143.809 121.24C143.87 121.3 143.932 121.362 143.993 121.422C144.155 121.582 144.393 121.68 144.623 121.68C144.842 121.68 145.102 121.584 145.253 121.422C145.409 121.254 145.525 121.032 145.514 120.797C145.503 120.564 145.422 120.342 145.253 120.173Z" fill="#F2E3B5"/>
<path d="M157.298 119.115C156.767 119.115 156.767 119.933 157.298 119.933C157.828 119.931 157.828 119.115 157.298 119.115Z" fill="#F2E3B5"/>
<path d="M148.297 101.706C148.113 101.713 147.957 101.854 147.957 102.043V102.225C147.957 102.402 148.113 102.569 148.297 102.562C148.48 102.555 148.637 102.414 148.637 102.225V102.043C148.637 101.866 148.48 101.699 148.297 101.706Z" fill="#F2E3B5"/>
<path d="M137.826 93.4705C137.099 93.4705 137.097 94.5903 137.826 94.5903C138.554 94.5921 138.555 93.4705 137.826 93.4705Z" fill="#F2E3B5"/>
<path d="M175.85 96.0432C175.152 96.0432 175.152 97.1175 175.85 97.1175C176.548 97.1175 176.548 96.0432 175.85 96.0432Z" fill="#F2E3B5"/>
<path d="M148.19 78.2958C148.129 78.2357 148.067 78.1738 148.006 78.1137C147.87 77.979 147.62 77.9681 147.486 78.1137C147.352 78.2594 147.341 78.4852 147.486 78.629L147.67 78.8111C147.806 78.9459 148.056 78.9568 148.19 78.8111C148.324 78.6673 148.335 78.4415 148.19 78.2958Z" fill="#F2E3B5"/>
<path d="M162.808 69.7288C162.461 69.7288 162.459 70.2641 162.808 70.2641C163.155 70.2641 163.157 69.7288 162.808 69.7288Z" fill="#F2E3B5"/>
<path d="M170.34 64.9108C170.048 64.9236 169.802 65.1457 169.802 65.4443V65.6264C169.802 65.905 170.05 66.1726 170.34 66.1599C170.632 66.1472 170.878 65.925 170.878 65.6264V65.4443C170.878 65.1657 170.63 64.8981 170.34 64.9108Z" fill="#F2E3B5"/>
<path d="M148.113 35.8198C147.92 35.8289 147.755 35.9746 147.755 36.1749V36.2659C147.755 36.4516 147.918 36.6282 148.113 36.621C148.306 36.6118 148.471 36.4662 148.471 36.2659V36.1749C148.471 35.9891 148.306 35.8125 148.113 35.8198Z" fill="#F2E3B5"/>
<path d="M137.643 31.9397C137.402 31.9397 137.402 32.3093 137.643 32.3093C137.884 32.3075 137.884 31.9397 137.643 31.9397Z" fill="#F2E3B5"/>
<path d="M172.176 15.8289H171.993C171.754 15.8289 171.522 16.0383 171.535 16.2822C171.546 16.5281 171.737 16.7356 171.993 16.7356H172.176C172.415 16.7356 172.647 16.5262 172.634 16.2822C172.623 16.0364 172.433 15.8289 172.176 15.8289Z" fill="#F2E3B5"/>
<path d="M175.115 9.40332C173.986 9.40332 173.984 11.144 175.115 11.144C176.245 11.144 176.247 9.40332 175.115 9.40332Z" fill="#F2E3B5"/>
<path d="M135.543 0.816373C135.495 0.772674 135.436 0.745361 135.37 0.745361H135.324C135.262 0.745361 135.196 0.772674 135.152 0.816373C135.109 0.858252 135.076 0.927443 135.08 0.98753C135.084 1.05126 135.104 1.11499 135.152 1.15869C135.199 1.20239 135.258 1.2297 135.324 1.2297H135.37C135.433 1.2297 135.499 1.20239 135.543 1.15869C135.585 1.11681 135.618 1.04762 135.614 0.98753C135.611 0.923802 135.591 0.860073 135.543 0.816373Z" fill="#F2E3B5"/>
<path d="M121.11 -1.09204C120.067 -1.09204 120.065 0.515741 121.11 0.515741C122.154 0.517562 122.156 -1.09204 121.11 -1.09204Z" fill="#F2E3B5"/>
<path d="M111.008 7.48584C109.988 7.48584 109.986 9.05538 111.008 9.05538C112.027 9.05538 112.029 7.48584 111.008 7.48584Z" fill="#F2E3B5"/>
<path d="M88.0464 7.70435C87.7831 7.70435 87.7813 8.11039 88.0464 8.11039C88.3097 8.10857 88.3116 7.70435 88.0464 7.70435Z" fill="#F2E3B5"/>
<path d="M66.7379 42.2544C66.6535 42.2544 66.6535 42.383 66.7379 42.383C66.8224 42.3848 66.8224 42.2544 66.7379 42.2544Z" fill="#F2E3B5"/>
</g>
</svg>
